<svg preserveAspectRatio="none" width="100%" height="100%" overflow="visible" style="display: block;" viewBox="0 0 14 14" fill="none" xmlns="http://www.w3.org/2000/svg">
<path id="Vector" d="M12.8033 0.480809C12.9553 0.632554 13.0759 0.812785 13.1582 1.01119C13.2405 1.20959 13.2828 1.42227 13.2828 1.63706C13.2828 1.85185 13.2405 2.06453 13.1582 2.26293C13.0759 2.46133 12.9553 2.64156 12.8033 2.79331L8.95456 6.64206L12.8052 10.4927C12.957 10.6445 13.0775 10.8248 13.1596 11.0232C13.2418 11.2216 13.2841 11.4342 13.2841 11.6489C13.2841 11.8637 13.2418 12.0763 13.1596 12.2747C13.0775 12.4731 12.957 12.6533 12.8052 12.8052C12.6533 12.957 12.4731 13.0775 12.2747 13.1596C12.0763 13.2418 11.8637 13.2841 11.6489 13.2841C11.4342 13.2841 11.2216 13.2418 11.0232 13.1596C10.8248 13.0775 10.6445 12.957 10.4927 12.8052L6.64206 8.95456L2.79143 12.8052C2.63959 12.957 2.45933 13.0775 2.26094 13.1596C2.06255 13.2418 1.84992 13.2841 1.63518 13.2841C1.42045 13.2841 1.20782 13.2418 1.00943 13.1596C0.811036 13.0775 0.630775 12.957 0.478934 12.8052C0.327093 12.6533 0.206646 12.4731 0.124471 12.2747C0.042295 12.0763 -3.1998e-09 11.8637 0 11.6489C3.19981e-09 11.4342 0.042295 11.2216 0.124471 11.0232C0.206646 10.8248 0.327093 10.6445 0.478934 10.4927L4.32956 6.64206L0.478934 2.79143C0.327093 2.63959 0.206646 2.45933 0.124471 2.26094C0.042295 2.06255 1.5999e-09 1.84992 0 1.63518C-1.5999e-09 1.42045 0.042295 1.20782 0.124471 1.00943C0.206646 0.811036 0.327093 0.630775 0.478934 0.478934C0.630775 0.327093 0.811036 0.206646 1.00943 0.124471C1.20782 0.042295 1.42045 -1.5999e-09 1.63518 0C1.84992 1.5999e-09 2.06255 0.042295 2.26094 0.124471C2.45933 0.206646 2.63959 0.327093 2.79143 0.478934L6.64206 4.32956L10.4927 0.478934C10.6445 0.327327 10.8247 0.207112 11.023 0.125155C11.2213 0.0431991 11.4338 0.00110667 11.6484 0.00128078C11.863 0.0014549 12.0754 0.0438921 12.2735 0.12617C12.4717 0.208448 12.6517 0.328955 12.8033 0.480809Z" fill="var(--fill-0, #999999)"/>
</svg>
