<svg preserveAspectRatio="none" width="100%" height="100%" overflow="visible" style="display: block;" viewBox="0 0 16 16" fill="none" xmlns="http://www.w3.org/2000/svg">
<g id="icon/close">
<path id="Union" fill-rule="evenodd" clip-rule="evenodd" d="M14.6465 3.44702C15.1178 2.9757 15.1178 2.21153 14.6465 1.74021C14.1752 1.26889 13.411 1.26889 12.9397 1.74021L8 6.67991L3.0603 1.74021C2.58898 1.26889 1.82481 1.26889 1.35349 1.74021C0.882169 2.21153 0.882169 2.9757 1.35349 3.44702L6.29319 8.38672L1.35349 13.3264C0.882169 13.7977 0.882169 14.5619 1.35349 15.0332C1.82481 15.5045 2.58898 15.5045 3.0603 15.0332L8 10.0935L12.9397 15.0332C13.411 15.5045 14.1752 15.5045 14.6465 15.0332C15.1178 14.5619 15.1178 13.7977 14.6465 13.3264L9.70681 8.38672L14.6465 3.44702Z" fill="var(--fill-0, #999999)"/>
</g>
</svg>
