<svg preserveAspectRatio="none" width="100%" height="100%" overflow="visible" style="display: block;" viewBox="0 0 419 337" fill="none" xmlns="http://www.w3.org/2000/svg">
<g id="Ebene_1" clip-path="url(#clip0_0_20)">
<path id="Vector" d="M203.237 259.425C212.385 259.425 219.8 244.228 219.8 225.483C219.8 206.737 212.385 191.54 203.237 191.54C194.09 191.54 186.674 206.737 186.674 225.483C186.674 244.228 194.09 259.425 203.237 259.425Z" stroke="var(--stroke-0, black)" stroke-width="6.80548" stroke-miterlimit="10"/>
<path id="Vector_2" d="M411.91 32.4281C411.57 31.7476 411.238 31.0925 410.932 30.4545L410.456 29.4762L338.896 6.26104C324.077 -0.323264 307.259 -1.76943 291.53 2.18626L219.732 23.7511C198.337 30.1823 176.262 31.8837 154.136 28.8297L42.6194 6.49923C36.3668 4.95098 31.2117 8.09852 29.1445 14.7083C26.2522 23.9723 29.8336 39.7525 42.2451 44.4057C44.0825 45.0948 46.1157 45.8859 48.3275 46.7366C55.1925 49.3908 63.5717 52.6234 73.0058 55.6773L11.8756 53.6102C8.7706 53.3124 6.0314 54.631 4.15989 57.3447C0.740138 62.2786 0.927288 70.8025 4.61075 78.0673C7.69874 84.1582 15.7717 94.4515 35.1418 94.9705C49.6715 95.3618 73.8055 96.2039 87.4164 96.6888L27.7154 126.003C25.2143 126.871 23.4789 128.879 22.943 131.558C21.9902 136.356 24.8145 142.354 30.1568 146.845C44.5164 158.933 65.0945 152.885 73.278 149.729C75.711 148.785 78.178 147.866 80.696 146.922C89.7728 143.519 99.8194 139.751 111.321 134.102L110.64 135.182L110.555 135.327C107.442 141.086 106.787 146.692 108.624 151.992C110.564 157.615 115.948 166.3 140.167 176.815L188.18 200.855C194.96 207.235 202.063 210.596 208.588 210.596C209.949 210.596 211.276 210.451 212.578 210.153C218.269 208.869 222.777 204.862 224.955 199.171C236.04 170.12 263.262 159.597 265.107 158.916C284.12 154.229 308.722 143.094 318.267 116.688C323.516 102.159 321.865 89.4495 321.474 86.991C322.639 83.3756 326.527 80.781 330.755 80.8831C337.909 81.0533 347.922 83.8945 354.906 86.4891C370.771 92.3929 377.9 94.8939 384.79 97.3098C387.938 98.4157 391.06 99.5131 394.965 100.908L396.326 101.393L397.44 100.474C398.393 99.6918 399.295 98.9687 400.154 98.2796C409.043 91.1424 413.943 87.2122 417.542 68.2249C420.919 50.4286 415.492 39.5909 411.902 32.4196L411.91 32.4281ZM192 163.314C187.619 155.488 178.244 149.397 164.939 141.596C178.814 124.847 194.696 111.312 200.396 108.752L200.583 108.658C205.075 106.174 215.283 104.217 221.927 114.468C224.07 119.249 218.498 125.748 211.455 133.949C204.717 141.801 196.483 151.388 192 163.314Z" fill="var(--fill-0, black)"/>
<g id="Mask group">
<mask id="mask0_0_20" style="mask-type:alpha" maskUnits="userSpaceOnUse" x="1" y="0" width="418" height="211">
<path id="Vector_3" d="M411.91 32.4281C411.57 31.7476 411.238 31.0925 410.932 30.4545L410.456 29.4762L338.896 6.26104C324.077 -0.323264 307.259 -1.76943 291.53 2.18626L219.732 23.7511C198.337 30.1823 176.262 31.8837 154.136 28.8297L42.6195 6.49923C36.3669 4.95098 31.2118 8.09852 29.1446 14.7083C26.2523 23.9723 29.8337 39.7525 42.2452 44.4057C44.0826 45.0948 46.1158 45.8859 48.3276 46.7366C55.1926 49.3908 63.5718 52.6234 73.0059 55.6773L11.8757 53.6102C8.77071 53.3124 6.0315 54.631 4.15999 57.3447C0.740241 62.2786 0.927392 70.8025 4.61086 78.0673C7.69884 84.1582 15.7718 94.4515 35.1419 94.9705C49.6716 95.3618 73.8056 96.2039 87.4165 96.6888L27.7155 126.003C25.2144 126.871 23.479 128.879 22.9431 131.558C21.9904 136.356 24.8146 142.354 30.1569 146.845C44.5165 158.933 65.0946 152.885 73.2781 149.729C75.7111 148.785 78.1781 147.866 80.6961 146.922C89.7729 143.519 99.8195 139.751 111.321 134.102L110.64 135.182L110.555 135.327C107.442 141.086 106.787 146.692 108.624 151.992C110.564 157.615 115.948 166.3 140.167 176.815L188.18 200.855C194.96 207.235 202.063 210.596 208.588 210.596C209.949 210.596 211.276 210.451 212.578 210.153C218.269 208.869 222.778 204.862 224.955 199.171C236.04 170.12 263.262 159.597 265.108 158.916C284.12 154.229 308.722 143.094 318.267 116.688C323.516 102.159 321.865 89.4495 321.474 86.991C322.639 83.3756 326.527 80.781 330.755 80.8831C337.909 81.0533 347.922 83.8945 354.906 86.4891C370.771 92.3929 377.9 94.8939 384.79 97.3098C387.938 98.4157 391.06 99.5131 394.965 100.908L396.326 101.393L397.44 100.474C398.393 99.6918 399.295 98.9687 400.154 98.2796C409.043 91.1424 413.943 87.2122 417.542 68.2249C420.919 50.4286 415.492 39.5909 411.902 32.4196L411.91 32.4281ZM192 163.314C187.619 155.488 178.244 149.397 164.939 141.596C178.814 124.847 194.696 111.312 200.396 108.752L200.583 108.658C205.075 106.174 215.283 104.217 221.927 114.468C224.071 119.249 218.499 125.748 211.455 133.949C204.717 141.801 196.483 151.388 192 163.314Z" fill="var(--fill-0, black)"/>
</mask>
<g mask="url(#mask0_0_20)">
<g id="Vector 11">
<path d="M210.497 77.8376C266.642 17.8643 359.545 54.0668 391.694 100.381C423.842 146.695 407.222 168.443 407.222 168.443C412.378 202.948 423.834 275.76 428.41 290.959C434.129 309.958 413.133 361.681 383.398 437.517C353.664 513.354 328.846 498.732 293.25 500.687C264.772 502.251 153.052 410.923 117.108 380.175L105.438 137.811C154.4 83.0779 159.414 132.404 210.497 77.8376Z" fill="url(#paint0_linear_0_20)"/>
<path d="M210.497 77.8376C266.642 17.8643 359.545 54.0668 391.694 100.381C423.842 146.695 407.222 168.443 407.222 168.443C412.378 202.948 423.834 275.76 428.41 290.959C434.129 309.958 413.133 361.681 383.398 437.517C353.664 513.354 328.846 498.732 293.25 500.687C264.772 502.251 153.052 410.923 117.108 380.175L105.438 137.811C154.4 83.0779 159.414 132.404 210.497 77.8376Z" fill="url(#paint1_linear_0_20)"/>
<path d="M210.497 77.8376C266.642 17.8643 359.545 54.0668 391.694 100.381C423.842 146.695 407.222 168.443 407.222 168.443C412.378 202.948 423.834 275.76 428.41 290.959C434.129 309.958 413.133 361.681 383.398 437.517C353.664 513.354 328.846 498.732 293.25 500.687C264.772 502.251 153.052 410.923 117.108 380.175L105.438 137.811C154.4 83.0779 159.414 132.404 210.497 77.8376Z" stroke="var(--stroke-0, black)" stroke-width="0.850685"/>
</g>
</g>
</g>
<path id="Vector_4" d="M71.8914 101.461C137.7 78.0844 145.816 51.7472 145.816 51.7472C145.816 51.7472 152.911 26.5244 191.583 33.9678" stroke="var(--stroke-0, white)" stroke-width="5.10411" stroke-miterlimit="10" stroke-linecap="round"/>
<path id="Vector_5" d="M181.494 147.1C199.988 162.234 215.844 193.216 181.97 200.421" stroke="var(--stroke-0, white)" stroke-width="5.10411" stroke-miterlimit="10"/>
<path id="Vector_6" d="M207.695 201.697C210.587 206.308 212.561 211.2 212.892 215.734" stroke="var(--stroke-0, white)" stroke-width="5.10411" stroke-linecap="round" stroke-linejoin="round"/>
<path id="Vector_7" d="M193.982 193.939L171.507 182.531C171.507 182.531 167.619 190.902 155.071 188.171" stroke="var(--stroke-0, white)" stroke-width="5.10411" stroke-linecap="round" stroke-linejoin="round"/>
<path id="Vector_8" d="M20.5696 132.452C20.5696 132.452 28.2598 124.523 38.1022 135.097L55.6349 126.208C55.6349 126.208 56.8513 123.775 55.5328 120.942" stroke="var(--stroke-0, white)" stroke-width="5.10411" stroke-linecap="round" stroke-linejoin="round"/>
<path id="Vector_9" d="M2.55208 57.5063C2.55208 57.5063 10.7187 50.0628 17.924 60.6283L37.864 61.1047C37.864 61.1047 39.3017 58.944 37.864 57.0214" stroke="var(--stroke-0, white)" stroke-width="5.10411" stroke-linecap="round" stroke-linejoin="round"/>
<g id="Vector_10">
<path d="M29.136 7.54559C29.136 7.54559 39.7015 3.70049 44.8311 11.7054L65.9706 15.8653" fill="url(#paint2_linear_0_20)"/>
<path d="M29.136 7.54559C29.136 7.54559 39.7015 3.70049 44.8311 11.7054L65.9706 15.8653" stroke="var(--stroke-0, white)" stroke-width="5.10411" stroke-linecap="round" stroke-linejoin="round"/>
</g>
<path id="Vector_11" d="M151.022 82.2782C151.022 82.2782 162.451 59.5995 190.864 62.1771" stroke="var(--stroke-0, white)" stroke-width="5.10411" stroke-miterlimit="10" stroke-linecap="round"/>
<path id="Vector_12" d="M209.396 299.339C209.396 295.881 206.595 293.078 203.139 293.078C199.684 293.078 196.883 295.881 196.883 299.339V330.593C196.883 334.051 199.684 336.854 203.139 336.854C206.595 336.854 209.396 334.051 209.396 330.593V299.339Z" fill="var(--fill-0, black)"/>
<path id="Vector_13" d="M203.56 306.153C200.784 306.153 198.533 308.404 198.533 311.181C198.533 313.957 200.784 316.208 203.56 316.208H213.063C215.839 316.208 218.09 313.957 218.09 311.181C218.09 308.404 215.839 306.153 213.063 306.153H203.56Z" fill="var(--fill-0, black)"/>
<path id="Vector_14" d="M205.806 318.573C203.03 318.573 200.779 320.824 200.779 323.601C200.779 326.377 203.03 328.628 205.806 328.628H210.298C213.074 328.628 215.325 326.377 215.325 323.601C215.325 320.824 213.074 318.573 210.298 318.573H205.806Z" fill="var(--fill-0, black)"/>
<path id="Vector_15" d="M203.535 255.733C191.132 255.733 181.077 265.788 181.077 278.191C181.077 290.594 191.132 300.649 203.535 300.649C215.938 300.649 225.993 290.594 225.993 278.191C225.993 265.788 215.938 255.733 203.535 255.733ZM204.045 277.034C200.149 277.034 196.985 273.878 196.985 269.973C196.985 266.069 200.149 262.913 204.045 262.913C207.941 262.913 211.106 266.069 211.106 269.973C211.106 273.878 207.941 277.034 204.045 277.034Z" fill="var(--fill-0, black)"/>
<path id="Vector_16" d="M108.717 160.711C108.717 160.711 98.152 146.939 108.717 133.166C117.709 121.452 142.983 92.8097 142.983 92.8097" stroke="var(--stroke-0, white)" stroke-width="5.10411" stroke-miterlimit="10" stroke-linecap="round"/>
<path id="Vector_17" d="M49.9522 51.9853C49.9522 51.9853 86.7784 57.2681 124.889 52.785" stroke="var(--stroke-0, white)" stroke-width="5.10411" stroke-miterlimit="10" stroke-linecap="round"/>
</g>
<defs>
<linearGradient id="paint0_linear_0_20" x1="364.499" y1="74.9928" x2="144.614" y2="271.427" gradientUnits="userSpaceOnUse">
<stop stop-color="#FEC7A9"/>
<stop offset="0.538082" stop-color="#56DEEF"/>
<stop offset="1" stop-color="#4898E3"/>
</linearGradient>
<linearGradient id="paint1_linear_0_20" x1="396.114" y1="50.4271" x2="164.614" y2="229.427" gradientUnits="userSpaceOnUse">
<stop stop-color="#56DEEF"/>
<stop offset="0.475432" stop-color="#4898E3"/>
<stop offset="1" stop-color="#FEC7A9"/>
</linearGradient>
<linearGradient id="paint2_linear_0_20" x1="29.136" y1="11.2546" x2="65.9621" y2="11.2546" gradientUnits="userSpaceOnUse">
<stop stop-color="white"/>
<stop offset="1" stop-color="#1D1D1B"/>
</linearGradient>
<clipPath id="clip0_0_20">
<rect width="418.614" height="336.854" fill="white"/>
</clipPath>
</defs>
</svg>
