<svg preserveAspectRatio="none" width="100%" height="100%" overflow="visible" style="display: block;" viewBox="0 0 26 20" fill="none" xmlns="http://www.w3.org/2000/svg">
<g id="logos:maestro" clip-path="url(#clip0_0_71)">
<path id="Vector" d="M16.3428 14.2025H9.38583V1.6998H16.3428V14.2025Z" fill="var(--fill-0, #6C6BBD)"/>
<path id="Vector_2" d="M9.82744 7.95146C9.82744 5.41518 11.0149 3.15598 12.8641 1.7001C11.5119 0.635477 9.80503 0 7.95035 0C3.5594 0 0 3.5599 0 7.95146C0 12.3429 3.5594 15.9028 7.95035 15.9028C9.80513 15.9028 11.5119 15.2673 12.8641 14.2027C11.0149 12.7468 9.82744 10.4876 9.82744 7.95146Z" fill="var(--fill-0, #D32011)"/>
<path id="Vector_3" d="M25.7286 7.95146C25.7286 12.3429 22.1692 15.9028 17.7783 15.9028C15.9235 15.9028 14.2168 15.2673 12.864 14.2027C14.7138 12.7468 15.9012 10.4876 15.9012 7.95146C15.9012 5.41518 14.7138 3.15598 12.864 1.7001C14.2168 0.635477 15.9236 0 17.7783 0C22.1692 0 25.7286 3.5599 25.7286 7.95146Z" fill="var(--fill-0, #0099DF)"/>
<path id="Vector_4" d="M18.6968 17.7353C18.7892 17.7353 18.9222 17.753 19.0238 17.7929L18.8823 18.2256C18.7852 18.1857 18.6881 18.1726 18.5952 18.1726C18.2949 18.1726 18.1447 18.3666 18.1447 18.7155V19.8994H17.6852V17.7883H18.1402V18.0446C18.2595 17.8591 18.4319 17.7353 18.6968 17.7353ZM16.9992 18.2079H16.2484V19.1618C16.2484 19.3737 16.3233 19.5152 16.5534 19.5152C16.6727 19.5152 16.8227 19.4753 16.9593 19.3959L17.0917 19.7887C16.9461 19.8902 16.7166 19.9526 16.5179 19.9526C15.9745 19.9526 15.7849 19.6608 15.7849 19.1705V18.2079H15.3563V17.7883H15.7849V17.1478H16.2484V17.7883H16.9992V18.2079ZM11.1204 18.6584C11.1694 18.3536 11.3546 18.1458 11.6816 18.1458C11.9773 18.1458 12.1673 18.3313 12.2159 18.6584H11.1204ZM12.6932 18.8439C12.6885 18.1856 12.2821 17.7353 11.6902 17.7353C11.072 17.7353 10.6392 18.1857 10.6392 18.8438C10.6392 19.5147 11.0896 19.952 11.7215 19.952C12.0395 19.952 12.3307 19.8726 12.5869 19.6563L12.3615 19.3161C12.1851 19.4576 11.9596 19.537 11.7478 19.537C11.4521 19.537 11.1826 19.4 11.1164 19.0204H12.684C12.6885 18.9627 12.6932 18.9055 12.6932 18.8439ZM14.7112 18.3272C14.5832 18.2473 14.3228 18.1457 14.0534 18.1457C13.8016 18.1457 13.6515 18.2388 13.6515 18.3935C13.6515 18.5345 13.8103 18.5744 14.0089 18.6007L14.2253 18.6316C14.6848 18.6983 14.9628 18.8925 14.9628 19.2635C14.9628 19.6653 14.6094 19.9525 14.0003 19.9525C13.6556 19.9525 13.3376 19.864 13.0857 19.6785L13.3022 19.3206C13.4569 19.4399 13.6869 19.5415 14.0048 19.5415C14.3183 19.5415 14.4861 19.449 14.4861 19.2852C14.4861 19.1664 14.3668 19.0997 14.1151 19.0648L13.8987 19.034C13.426 18.9672 13.1697 18.7554 13.1697 18.4112C13.1697 17.9916 13.5145 17.7353 14.0488 17.7353C14.3845 17.7353 14.6893 17.8107 14.9097 17.9562L14.7112 18.3272ZM20.3755 18.1715C20.281 18.1715 20.1936 18.1882 20.1122 18.2211C20.0334 18.253 19.9619 18.3005 19.9018 18.3606C19.8414 18.4221 19.7939 18.4952 19.7623 18.5755C19.7285 18.659 19.7117 18.7508 19.7118 18.851C19.7118 18.9516 19.7284 19.043 19.7623 19.1264C19.7962 19.21 19.8427 19.2816 19.9018 19.3413C19.9619 19.4015 20.0334 19.4489 20.1122 19.4808C20.1936 19.5142 20.281 19.5304 20.3755 19.5304C20.4699 19.5304 20.558 19.5143 20.6388 19.4808C20.7179 19.449 20.7898 19.4016 20.8502 19.3413C20.9104 19.2817 20.9569 19.2098 20.9913 19.1264C21.0251 19.043 21.0418 18.9516 21.0418 18.851C21.0419 18.7508 21.025 18.659 20.9913 18.5755C20.9569 18.4921 20.9104 18.4203 20.8502 18.3606C20.7898 18.3004 20.718 18.2529 20.6389 18.2211C20.5552 18.1876 20.4657 18.1708 20.3756 18.1716M20.3756 17.7354C20.5394 17.7353 20.6911 17.7638 20.8306 17.8208C20.9701 17.8775 21.0908 17.9557 21.1926 18.0554C21.295 18.1558 21.3763 18.2758 21.4317 18.4081C21.4893 18.5442 21.5181 18.6919 21.5181 18.8511C21.5181 19.0102 21.4893 19.1579 21.4317 19.2939C21.3763 19.4265 21.295 19.5466 21.1925 19.6472C21.091 19.7468 20.9701 19.8247 20.8307 19.8818C20.691 19.9384 20.5393 19.9667 20.3756 19.9667C20.2118 19.9667 20.0601 19.9384 19.9206 19.8818C19.7811 19.8247 19.6613 19.7468 19.5602 19.6472C19.4582 19.5463 19.3773 19.4262 19.322 19.2939C19.2644 19.1579 19.2356 19.0102 19.2356 18.8511C19.2356 18.6919 19.2644 18.5443 19.322 18.4082C19.3773 18.276 19.4583 18.1561 19.5602 18.0554C19.6637 17.9541 19.7862 17.8744 19.9206 17.8208C20.0601 17.7638 20.2118 17.7353 20.3756 17.7354ZM8.43719 18.8438C8.43719 18.4729 8.6804 18.168 9.07769 18.168C9.45739 18.168 9.71367 18.4597 9.71367 18.8439C9.71367 19.2281 9.45739 19.5193 9.07769 19.5193C8.6804 19.5193 8.43719 19.2149 8.43719 18.8438ZM10.1464 18.8439V17.7884H9.68734V18.0447C9.54131 17.8547 9.3209 17.7354 9.0206 17.7354C8.42864 17.7354 7.96503 18.1989 7.96503 18.8439C7.96503 19.4885 8.42864 19.9526 9.0206 19.9526C9.3209 19.9526 9.54121 19.8333 9.68734 19.6432V19.8995H10.1464V18.8439ZM7.55849 19.8995V18.5746C7.55849 18.0756 7.2405 17.7399 6.72844 17.7354C6.45899 17.7309 6.1804 17.8148 5.98633 18.111C5.8407 17.8769 5.61075 17.7354 5.28824 17.7354C5.06322 17.7354 4.84231 17.8016 4.66995 18.0487V17.7884H4.21095V19.8995H4.67447V18.7292C4.67447 18.3627 4.87769 18.1681 5.19106 18.1681C5.49598 18.1681 5.65065 18.3667 5.65065 18.7247V19.8995H6.11427V18.7291C6.11427 18.3626 6.32653 18.168 6.63085 18.168C6.94482 18.168 7.09498 18.3666 7.09498 18.7246V19.8995H7.55849Z" fill="var(--fill-0, #110F0D)"/>
</g>
<defs>
<clipPath id="clip0_0_71">
<rect width="25.7286" height="20" fill="white"/>
</clipPath>
</defs>
</svg>
