<svg preserveAspectRatio="none" width="100%" height="100%" overflow="visible" style="display: block;" viewBox="0 0 44 18" fill="none" xmlns="http://www.w3.org/2000/svg">
<g id="logos:apple-pay" clip-path="url(#clip0_0_84)">
<path id="Vector" d="M7.98075 2.3121C7.4689 2.91779 6.64977 3.39569 5.83073 3.32736C5.72836 2.5084 6.12931 1.63809 6.59859 1.10056C7.11043 0.47781 8.00634 0.0341232 8.73154 0C8.81685 0.853166 8.48407 1.68927 7.98075 2.3121ZM8.7231 3.48953C7.53715 3.42128 6.52189 4.16346 5.95878 4.16346C5.38721 4.16346 4.52543 3.52365 3.58696 3.54071C2.36697 3.55777 1.2322 4.24877 0.609363 5.34941C-0.670428 7.55062 0.276662 10.8098 1.51371 12.6014C2.11949 13.4887 2.84469 14.4613 3.80023 14.4272C4.70466 14.3931 5.06296 13.8386 6.15507 13.8386C7.25563 13.8386 7.57135 14.4272 8.52689 14.4102C9.51655 14.3931 10.1394 13.5229 10.7452 12.6356C11.4362 11.6289 11.7178 10.6476 11.7348 10.5965C11.7178 10.5794 9.82374 9.85427 9.80668 7.67005C9.78962 5.84428 11.2997 4.97406 11.368 4.92287C10.5147 3.66014 9.18385 3.52365 8.7231 3.48953ZM15.5742 1.01525V14.3164H17.6388V9.76897H20.497C23.1077 9.76897 24.942 7.97733 24.942 5.38362C24.942 2.79 23.1418 1.01534 20.5652 1.01534L15.5742 1.01525ZM17.6388 2.75579H20.0192C21.8109 2.75579 22.8347 3.71133 22.8347 5.39207C22.8347 7.07281 21.8109 8.03696 20.0106 8.03696H17.6388V2.75579ZM28.713 14.4187C30.0098 14.4187 31.2128 13.7618 31.7588 12.7209H31.8015V14.3163H33.7126V7.69564C33.7126 5.77604 32.1769 4.5389 29.8136 4.5389C27.6209 4.5389 25.9999 5.7931 25.9401 7.51649H27.8001C27.9537 6.69745 28.7129 6.15992 29.7538 6.15992C31.0166 6.15992 31.7247 6.74863 31.7247 7.83222V8.56587L29.1481 8.71942C26.7507 8.86444 25.4539 9.84566 25.4539 11.5521C25.4539 13.2755 26.7933 14.4187 28.713 14.4187ZM29.2675 12.8403C28.167 12.8403 27.4673 12.3114 27.4673 11.5008C27.4673 10.6648 28.1413 10.1784 29.4297 10.1017L31.7247 9.95664V10.7074C31.7247 11.953 30.6668 12.8403 29.2676 12.8403M36.2637 17.9338C38.2772 17.9338 39.2242 17.166 40.0518 14.8368L43.6777 4.66686H41.5789L39.1474 12.5246H39.1047L36.6732 4.66686H34.5146L38.0126 14.3504L37.8249 14.9391C37.5093 15.9373 36.9973 16.3213 36.0845 16.3213C35.9224 16.3213 35.6067 16.3042 35.4787 16.2872V17.8826C35.5981 17.9167 36.11 17.9338 36.2636 17.9338" fill="var(--fill-0, black)"/>
</g>
<defs>
<clipPath id="clip0_0_84">
<rect width="43.6777" height="18" fill="white"/>
</clipPath>
</defs>
</svg>
