<svg preserveAspectRatio="none" width="100%" height="100%" overflow="visible" style="display: block;" viewBox="0 0 51 20" fill="none" xmlns="http://www.w3.org/2000/svg">
<g id="logos:google-pay" clip-path="url(#clip0_0_38)">
<path id="Vector" d="M35.5811 5.39775C36.961 5.39775 38.0274 5.77412 38.8428 6.52686C39.6582 7.27951 40.0345 8.28314 40.0345 9.53765V15.5592H38.2782V14.1794H38.2155C37.4628 15.3085 36.3965 15.873 35.142 15.873C34.0756 15.873 33.1347 15.5593 32.3821 14.9322C31.6921 14.3049 31.2529 13.4268 31.2529 12.4859C31.2529 11.4822 31.6293 10.6668 32.3821 10.0395C33.1347 9.41225 34.2011 9.16137 35.4556 9.16137C36.5846 9.16137 37.4628 9.34961 38.1527 9.78863V9.34961C38.1527 8.76412 37.9342 8.17873 37.4971 7.79725L37.4 7.71873C36.8982 7.27961 36.271 7.02873 35.5811 7.02873C34.5147 7.02873 33.6993 7.46781 33.1347 8.34598L31.5039 7.34216C32.5075 6.0249 33.8247 5.39775 35.5811 5.39775ZM26.7368 1.13235C27.8623 1.13235 28.9319 1.52402 29.7871 2.25441L29.9358 2.38676C30.8139 3.13951 31.2529 4.26863 31.2529 5.46039C31.2529 6.65216 30.8139 7.71853 29.9358 8.53392C29.0576 9.34931 27.9913 9.78843 26.7368 9.78843L23.726 9.72569V15.5592H21.8441V1.13235H26.7368ZM35.8319 10.6667C35.0792 10.6667 34.452 10.8548 33.9502 11.2312C33.4484 11.5448 33.1975 11.9838 33.1975 12.5483C33.1975 13.0502 33.4484 13.4892 33.8247 13.7402C34.2638 14.0538 34.7656 14.242 35.2675 14.242C35.9699 14.242 36.6725 13.9687 37.222 13.4733L37.3374 13.3638C37.9646 12.7993 38.2782 12.1093 38.2782 11.3566C37.7137 10.9175 36.8982 10.6666 35.832 10.6666M26.8624 2.88853H23.7261V7.90686H26.8624C27.5523 7.90686 28.2423 7.65598 28.6814 7.15422C29.6849 6.21333 29.6849 4.6452 28.7441 3.70422L28.6814 3.64147C28.1795 3.13971 27.5523 2.82608 26.8623 2.88882M50.1961 5.71137L43.9863 19.9501H42.1045L44.4253 14.9948L40.3481 5.77412H42.3554L45.3034 12.8621H45.3662L48.2516 5.77412H50.1961V5.71137Z" fill="var(--fill-0, #5F6368)"/>
<path id="Vector_2" d="M16.2616 8.47127C16.2616 7.90676 16.1988 7.34226 16.1361 6.77775H8.29559V9.97676H12.749C12.5609 10.9803 11.9964 11.9212 11.1182 12.4858V14.5557H13.8154C15.3835 13.113 16.2617 10.9803 16.2617 8.47137" fill="var(--fill-0, #4285F4)"/>
<path id="Vector_3" d="M8.29549 16.5629C10.5535 16.5629 12.4353 15.8102 13.8153 14.5557L11.1181 12.4858C10.3654 12.9875 9.42451 13.3012 8.29549 13.3012C6.16275 13.3012 4.28098 11.8585 3.65373 9.85127H0.893922V11.9839C2.33657 14.8066 5.15922 16.5629 8.29549 16.5629Z" fill="var(--fill-0, #34A853)"/>
<path id="Vector_4" d="M3.65373 9.85127C3.27745 8.84765 3.27745 7.71863 3.65373 6.65225V4.51961H0.893922C-0.297941 6.84049 -0.297941 9.60039 0.893922 11.9839L3.65373 9.85127Z" fill="var(--fill-0, #FBBC04)"/>
<path id="Vector_5" d="M8.29549 3.2651C9.48725 3.2651 10.6163 3.70422 11.4945 4.51961L13.878 2.13608C12.3725 0.756078 10.3654 -0.0593137 8.35814 0.00333333C5.22186 0.00333333 2.33657 1.75971 0.956569 4.58235L3.71647 6.715C4.28098 4.70774 6.16274 3.2651 8.29549 3.2651Z" fill="var(--fill-0, #EA4335)"/>
</g>
<defs>
<clipPath id="clip0_0_38">
<rect width="50.1961" height="20" fill="white"/>
</clipPath>
</defs>
</svg>
