<svg preserveAspectRatio="none" width="100%" height="100%" overflow="visible" style="display: block;" viewBox="0 0 17 20" fill="none" xmlns="http://www.w3.org/2000/svg">
<g id="logos:paypal" clip-path="url(#clip0_0_31)">
<path id="Vector" d="M14.382 1.55676C13.4592 0.504967 11.7911 0.0540397 9.65715 0.0540397H3.46378C3.25263 0.0540072 3.0484 0.129319 2.88782 0.266427C2.72725 0.403536 2.62087 0.593443 2.58781 0.801987L0.00900662 17.1574C-0.0422517 17.4799 0.207483 17.772 0.534371 17.772H4.35795L5.31821 11.6812L5.28841 11.8719C5.35682 11.4414 5.72503 11.1238 6.16106 11.1238H7.97801C11.5474 11.1238 14.3423 9.67404 15.1587 5.48007C15.183 5.35603 15.204 5.2353 15.2221 5.11735C15.1191 5.06278 15.1191 5.06278 15.2221 5.11735C15.4652 3.56722 15.2205 2.51205 14.382 1.55676Z" fill="var(--fill-0, #27346A)"/>
<path id="Vector_2" d="M6.78126 4.55894C6.88576 4.50909 7.00011 4.48329 7.1159 4.48344H11.9714C12.5464 4.48344 13.0827 4.52086 13.5727 4.59973C13.7098 4.62162 13.8463 4.64772 13.9818 4.67801C14.1739 4.7204 14.3637 4.77228 14.5507 4.83344C14.7916 4.91391 15.016 5.00762 15.2222 5.11735C15.4652 3.56662 15.2205 2.51205 14.382 1.55675C13.4587 0.504967 11.7911 0.0540397 9.65715 0.0540397H3.46325C3.02715 0.0540397 2.65616 0.371523 2.58781 0.801987L0.00900662 17.1568C-0.0422517 17.4799 0.207483 17.7715 0.533841 17.7715H4.35795L6.3502 5.13775C6.36981 5.01357 6.41928 4.89602 6.49437 4.7952C6.56945 4.69437 6.66791 4.6133 6.78126 4.55894Z" fill="var(--fill-0, #27346A)"/>
<path id="Vector_3" d="M15.1587 5.48007C14.3423 9.67344 11.5475 11.1238 7.97801 11.1238H6.16053C5.7245 11.1238 5.35623 11.4414 5.28848 11.8719L4.09384 19.4451C4.04921 19.7274 4.26748 19.9831 4.55305 19.9831H7.77623C7.96086 19.9831 8.13942 19.9171 8.27979 19.7972C8.42016 19.6773 8.51313 19.5112 8.54199 19.3288L8.57338 19.1646L9.18086 15.3145L9.22 15.1017C9.24885 14.9194 9.34181 14.7533 9.48217 14.6334C9.62253 14.5134 9.80107 14.4475 9.9857 14.4474H10.4681C13.5904 14.4474 16.0352 13.1789 16.7497 9.51033C17.0479 7.97722 16.8936 6.69722 16.1047 5.79815C15.8654 5.52583 15.5683 5.30093 15.2221 5.11735C15.2034 5.23589 15.183 5.35603 15.1587 5.48007Z" fill="var(--fill-0, #2790C3)"/>
<path id="Vector_4" d="M14.3677 4.77669C14.2404 4.73952 14.1119 4.70661 13.9824 4.67801C13.8468 4.64821 13.7104 4.62228 13.5733 4.60027C13.0827 4.52086 12.5468 4.48338 11.9713 4.48338H7.11642C7.00057 4.48318 6.88617 4.5092 6.78179 4.55947C6.66829 4.61363 6.56971 4.69465 6.49458 4.79551C6.41946 4.89637 6.37006 5.01402 6.35066 5.13828L5.31874 11.6812L5.28894 11.8719C5.35682 11.4414 5.72503 11.1238 6.16113 11.1238H7.97861C11.548 11.1238 14.3428 9.67404 15.1593 5.48007C15.1836 5.35603 15.204 5.23583 15.2227 5.11735C15.016 5.0083 14.7922 4.91384 14.5512 4.83397C14.4904 4.81381 14.4292 4.79471 14.3677 4.77669" fill="var(--fill-0, #1F264F)"/>
</g>
<defs>
<clipPath id="clip0_0_31">
<rect width="16.9536" height="20" fill="white"/>
</clipPath>
</defs>
</svg>
