<svg preserveAspectRatio="none" width="100%" height="100%" overflow="visible" style="display: block;" viewBox="0 0 26 20" fill="none" xmlns="http://www.w3.org/2000/svg">
<g id="logos:mastercard" clip-path="url(#clip0_0_57)">
<path id="Vector" d="M4.67739 19.9006V18.5769C4.67739 18.0693 4.36844 17.7385 3.83889 17.7385C3.57417 17.7385 3.28734 17.8267 3.08874 18.1136C2.93437 17.8709 2.71377 17.7385 2.38281 17.7385C2.16211 17.7385 1.94161 17.8046 1.76503 18.0473V17.7826H1.30171V19.9006H1.76503V18.7313C1.76503 18.3563 1.96362 18.1797 2.27256 18.1797C2.58131 18.1797 2.73588 18.3783 2.73588 18.7313V19.9006H3.1992V18.7313C3.1992 18.3563 3.4197 18.1797 3.70653 18.1797C4.01548 18.1797 4.16985 18.3783 4.16985 18.7313V19.9006H4.67739ZM11.5388 17.7826H10.7887V17.1428H10.3254V17.7826H9.90623V18.2017H10.3253V19.1726C10.3253 19.658 10.5239 19.9447 11.0535 19.9447C11.2521 19.9447 11.4726 19.8786 11.6271 19.7904L11.4947 19.3932C11.3623 19.4814 11.2079 19.5035 11.0976 19.5035C10.877 19.5035 10.7887 19.3712 10.7887 19.1505V18.2017H11.5388V17.7826ZM15.466 17.7384C15.2013 17.7384 15.0248 17.8709 14.9145 18.0473V17.7826H14.4512V19.9006H14.9145V18.7092C14.9145 18.3563 15.0688 18.1577 15.3557 18.1577C15.4439 18.1577 15.5543 18.1798 15.6425 18.2018L15.7749 17.7606C15.6866 17.7385 15.5543 17.7385 15.466 17.7385M9.53116 17.9592C9.31045 17.8047 9.00161 17.7386 8.67065 17.7386C8.14121 17.7386 7.78824 18.0033 7.78824 18.4225C7.78824 18.7756 8.05297 18.9741 8.51628 19.0403L8.73688 19.0624C8.9796 19.1064 9.11196 19.1727 9.11196 19.283C9.11196 19.4374 8.93548 19.5477 8.62653 19.5477C8.31759 19.5477 8.07497 19.4374 7.9205 19.3271L7.6999 19.6801C7.94261 19.8566 8.27357 19.9448 8.60442 19.9448C9.22221 19.9448 9.57528 19.6581 9.57528 19.2609C9.57528 18.8858 9.28844 18.6872 8.84714 18.6211L8.62653 18.599C8.42794 18.5769 8.27357 18.5329 8.27357 18.4005C8.27357 18.246 8.42794 18.1578 8.67065 18.1578C8.93548 18.1578 9.2002 18.268 9.33256 18.3343L9.53116 17.9592ZM21.8422 17.7386C21.5774 17.7386 21.4009 17.871 21.2906 18.0474V17.7827H20.8272V19.9007H21.2906V18.7093C21.2906 18.3564 21.445 18.1578 21.7318 18.1578C21.8201 18.1578 21.9305 18.1799 22.0187 18.2019L22.1511 17.7607C22.0628 17.7386 21.9305 17.7386 21.8422 17.7386ZM15.9293 18.8417C15.9293 19.4815 16.3706 19.9448 17.0546 19.9448C17.3634 19.9448 17.584 19.8787 17.8046 19.7022L17.584 19.3271C17.4075 19.4595 17.2311 19.5256 17.0325 19.5256C16.6574 19.5256 16.3927 19.2609 16.3927 18.8417C16.3927 18.4446 16.6574 18.1798 17.0325 18.1578C17.2311 18.1578 17.4075 18.2239 17.584 18.3564L17.8046 17.9813C17.584 17.8047 17.3634 17.7386 17.0546 17.7386C16.3706 17.7386 15.9293 18.2019 15.9293 18.8417ZM20.2095 18.8417V17.7827H19.7462V18.0474C19.5918 17.8489 19.3712 17.7386 19.0843 17.7386C18.4886 17.7386 18.0253 18.2019 18.0253 18.8417C18.0253 19.4815 18.4886 19.9448 19.0843 19.9448C19.3932 19.9448 19.6139 19.8346 19.7462 19.636V19.9007H20.2095V18.8417ZM18.5107 18.8417C18.5107 18.4666 18.7534 18.1578 19.1505 18.1578C19.5255 18.1578 19.7904 18.4446 19.7904 18.8417C19.7904 19.2168 19.5255 19.5256 19.1505 19.5256C18.7534 19.5035 18.5107 19.2168 18.5107 18.8417ZM12.973 17.7386C12.3552 17.7386 11.9139 18.1798 11.9139 18.8417C11.9139 19.5036 12.3551 19.9448 12.995 19.9448C13.3038 19.9448 13.6128 19.8566 13.8555 19.6581L13.6348 19.3271C13.4583 19.4595 13.2377 19.5477 13.0171 19.5477C12.7303 19.5477 12.4434 19.4154 12.3772 19.0402H13.9437V18.8638C13.9658 18.1798 13.5687 17.7386 12.973 17.7386ZM12.9729 18.1357C13.2596 18.1357 13.4583 18.3123 13.5023 18.6432H12.3992C12.4433 18.3564 12.6419 18.1357 12.9729 18.1357ZM24.4675 18.8417V16.9443H24.0042V18.0474C23.8497 17.8489 23.6291 17.7386 23.3423 17.7386C22.7466 17.7386 22.2833 18.2019 22.2833 18.8417C22.2833 19.4815 22.7466 19.9448 23.3423 19.9448C23.6513 19.9448 23.8719 19.8346 24.0042 19.636V19.9007H24.4675V18.8417ZM22.7687 18.8417C22.7687 18.4666 23.0114 18.1578 23.4085 18.1578C23.7836 18.1578 24.0483 18.4446 24.0483 18.8417C24.0483 19.2168 23.7836 19.5256 23.4085 19.5256C23.0114 19.5035 22.7687 19.2168 22.7687 18.8417ZM7.2806 18.8417V17.7827H6.81729V18.0474C6.66281 17.8489 6.44221 17.7386 6.15538 17.7386C5.5597 17.7386 5.09638 18.2019 5.09638 18.8417C5.09638 19.4815 5.5597 19.9448 6.15538 19.9448C6.46432 19.9448 6.68492 19.8346 6.81729 19.636V19.9007H7.2806V18.8417ZM5.5597 18.8417C5.5597 18.4666 5.80241 18.1578 6.1995 18.1578C6.57457 18.1578 6.8394 18.4446 6.8394 18.8417C6.8394 19.2168 6.57457 19.5256 6.1995 19.5256C5.80241 19.5035 5.5597 19.2168 5.5597 18.8417Z" fill="var(--fill-0, black)"/>
<path id="Vector_2" d="M9.37668 1.69879H16.3264V14.1863H9.37668V1.69879Z" fill="var(--fill-0, #FF5F00)"/>
<path id="Vector_3" d="M9.81799 7.94261C9.81799 5.40543 11.0093 3.15497 12.8405 1.69879C11.4948 0.639799 9.79598 0 7.94271 0C3.55206 0 0 3.55206 0 7.94261C0 12.3332 3.55206 15.8852 7.94261 15.8852C9.79588 15.8852 11.4947 15.2454 12.8405 14.1863C11.0093 12.7523 9.81799 10.4798 9.81799 7.94261Z" fill="var(--fill-0, #EB001B)"/>
<path id="Vector_4" d="M25.7031 7.94261C25.7031 12.3331 22.1511 15.8852 17.7605 15.8852C15.9072 15.8852 14.2084 15.2454 12.8626 14.1863C14.7159 12.7303 15.8852 10.4798 15.8852 7.94261C15.8852 5.40543 14.6938 3.15497 12.8626 1.69879C14.2083 0.639799 15.9072 0 17.7605 0C22.1511 0 25.7031 3.57417 25.7031 7.94261Z" fill="var(--fill-0, #F79E1B)"/>
</g>
<defs>
<clipPath id="clip0_0_57">
<rect width="25.7286" height="20" fill="white"/>
</clipPath>
</defs>
</svg>
