<svg preserveAspectRatio="none" width="100%" height="100%" overflow="visible" style="display: block;" viewBox="0 0 50 16" fill="none" xmlns="http://www.w3.org/2000/svg">
<g id="logos:visa" clip-path="url(#clip0_0_76)">
<path id="Vector" d="M25.5223 5.09455C25.4942 7.3145 27.5007 8.55325 29.0122 9.28983C30.5652 10.0455 31.0868 10.5301 31.0807 11.206C31.0691 12.2402 29.8419 12.6967 28.6936 12.7144C26.6901 12.7454 25.5252 12.1735 24.5991 11.7409L23.8774 15.1181C24.8066 15.5462 26.527 15.9196 28.3111 15.936C32.4991 15.936 35.2389 13.8687 35.2538 10.6635C35.2702 6.59566 29.6272 6.37051 29.6657 4.55229C29.679 4.00096 30.2051 3.41263 31.3579 3.26304C31.9285 3.18747 33.5036 3.12964 35.2894 3.952L35.9904 0.68453C35.03 0.334843 33.7957 -3.48522e-07 32.2589 -3.48522e-07C28.3171 -3.48522e-07 25.5447 2.09542 25.5223 5.09455ZM42.7254 0.281445C41.9607 0.281445 41.3162 0.727517 41.0286 1.41205L35.0464 15.696H39.2312L40.064 13.3945H45.1778L45.6609 15.696H49.3494L46.1307 0.281445H42.7254ZM43.3108 4.44549L44.5186 10.2338H41.211L43.3108 4.44549ZM20.4484 0.281638L17.1497 15.6958H21.1375L24.4347 0.281253L20.4484 0.281638ZM14.549 0.281638L10.3983 10.7732L8.71923 1.85234C8.52222 0.856482 7.74419 0.281445 6.88019 0.281445H0.0950361L0 0.729059C1.39296 1.03132 2.97561 1.51884 3.93446 2.04048C4.52125 2.35913 4.68858 2.63769 4.88135 3.39489L8.06149 15.696H12.2757L18.7366 0.281445L14.549 0.281638Z" fill="url(#paint0_linear_0_76)"/>
</g>
<defs>
<linearGradient id="paint0_linear_0_76" x1="2268.79" y1="47.9036" x2="2314.92" y2="-1588.75" gradientUnits="userSpaceOnUse">
<stop stop-color="#222357"/>
<stop offset="1" stop-color="#254AA5"/>
</linearGradient>
<clipPath id="clip0_0_76">
<rect width="49.3494" height="16" fill="white"/>
</clipPath>
</defs>
</svg>
