<svg preserveAspectRatio="none" width="100%" height="100%" overflow="visible" style="display: block;" viewBox="0 0 44 40" fill="none" xmlns="http://www.w3.org/2000/svg">
<g id="Group">
<path id="Vector" d="M36 30V6C36 4.93913 35.5786 3.92172 34.8284 3.17157C34.0783 2.42143 33.0609 2 32 2H6" stroke="var(--stroke-0, white)" stroke-width="4" stroke-linecap="round" stroke-linejoin="round"/>
<path id="Vector_2" fill-rule="evenodd" clip-rule="evenodd" d="M25.5048 6.88985C25.2649 6.76911 25.0009 6.66978 24.7112 6.59793C24.4322 6.52878 24.1293 6.4808 23.0428 6.5075L23.0277 6.50789C23.0224 6.50853 23.0172 6.50911 22.3901 6.62573C22.1949 6.67557 22.0034 6.73958 21.8171 6.81729C21.6379 6.89201 21.4647 6.98094 21.299 7.08329C21.1379 7.18281 20.9853 7.29615 20.8427 7.42211C20.7024 7.54621 20.5732 7.683 20.4565 7.83084C20.3399 7.97881 20.2368 8.13755 20.1485 8.30504C20.0587 8.47544 19.9843 8.65392 19.926 8.83827C19.884 8.97107 19.8506 9.10663 19.8262 9.24403C19.8019 9.38029 19.7864 9.51803 19.7797 9.65638C19.773 9.79469 19.7747 9.93329 19.785 10.0714C19.7953 10.2104 19.8136 10.3487 19.8397 10.4855C19.8663 10.624 19.9004 10.7609 19.9418 10.8955C19.984 11.0324 20.0331 11.167 20.089 11.2986C20.1461 11.433 20.2096 11.5645 20.2793 11.6924C20.3063 11.7423 20.3344 11.7919 20.3636 11.8412C20.2971 11.9169 20.232 11.9938 20.1682 12.0719C20.0545 12.2109 19.9459 12.3544 19.8429 12.502C19.7455 12.6414 19.6541 12.7852 19.569 12.9328C19.4881 13.0732 19.4141 13.2176 19.3473 13.3656C19.2833 13.5073 19.2271 13.6527 19.1789 13.8009C19.1323 13.9445 19.0943 14.0908 19.0652 14.2392C19.0367 14.3844 19.0174 14.5314 19.0075 14.6792C18.9812 15.0789 19.0243 15.4802 19.1349 15.8642C19.2029 16.101 19.2953 16.3295 19.4091 16.551C19.5206 16.7678 19.6527 16.978 19.8027 17.1824C19.9494 17.3826 20.1134 17.5775 20.2916 17.7681C20.4667 17.9555 20.6556 18.1389 20.8553 18.3195C21.0524 18.4977 21.2602 18.6733 21.4756 18.8475C21.6928 19.0223 21.9125 19.1938 22.1348 19.3617C22.361 19.5326 22.5879 19.7024 22.8157 19.871L22.9204 19.949L23.0259 20.0276L23.0789 20.067L23.1321 20.1067L23.2391 20.1868L23.3471 20.2677L23.4562 20.3498L23.6782 20.5183C23.796 20.6037 23.9093 20.6957 24.0175 20.7937C24.1115 20.8789 24.2005 20.9698 24.2841 21.0658C24.3573 21.1499 24.4253 21.2388 24.4875 21.3319C24.5415 21.4129 24.5899 21.4978 24.6323 21.5858C24.6688 21.6615 24.6993 21.74 24.7237 21.8207C24.7445 21.889 24.7593 21.9591 24.768 22.0302C24.7753 22.0923 24.7767 22.1518 24.7722 22.2081C24.7687 22.2564 24.7597 22.304 24.7454 22.3501C24.7316 22.394 24.7129 22.4362 24.6896 22.4757C24.6654 22.5169 24.6367 22.5552 24.6042 22.5898C24.5674 22.6289 24.527 22.6643 24.4836 22.6953C24.4327 22.7314 24.3791 22.7631 24.3232 22.7901C24.2579 22.8216 24.1904 22.8483 24.1213 22.8699C24.0415 22.895 23.9604 22.9151 23.8783 22.9301C23.785 22.9472 23.6909 22.9595 23.5965 22.9669C23.4905 22.9752 23.3842 22.9787 23.2779 22.9774C23.1063 22.9715 22.949 22.9473 22.8113 22.9085C22.6828 22.8723 22.5722 22.8236 22.4774 22.7658C22.3932 22.7147 22.316 22.6521 22.2479 22.5798C22.1884 22.5162 22.1364 22.4457 22.093 22.3696C22.054 22.3015 22.0214 22.2297 21.9954 22.1553C21.9736 22.0935 21.9563 22.0301 21.9434 21.9657C21.9346 21.9222 21.9281 21.8783 21.9239 21.8341L21.902 21.4554H19.4945C19.4584 21.7156 19.4645 22.0273 19.5218 22.3601C19.557 22.5625 19.6082 22.7616 19.6749 22.9554C19.7463 23.1636 19.8348 23.3651 19.9394 23.5578C20.0504 23.7624 20.1795 23.9561 20.3251 24.1363C20.4796 24.3273 20.6527 24.5016 20.8416 24.6565C21.044 24.822 21.2633 24.9643 21.4956 25.0809C21.7353 25.2017 21.9994 25.3009 22.2889 25.3728C22.5741 25.4436 22.8844 25.4877 23.2212 25.499L23.2636 25.4995L23.3193 25.5C23.5427 25.5004 23.7659 25.4874 23.9879 25.4611C24.1974 25.4361 24.4051 25.3974 24.6098 25.3451C24.805 25.2953 24.9964 25.2312 25.1828 25.1535C25.3618 25.0787 25.535 24.9898 25.7008 24.8876C25.8619 24.7881 26.0145 24.6747 26.157 24.5487C26.2973 24.4246 26.4266 24.2878 26.5432 24.1401C26.6599 23.9921 26.763 23.8333 26.8513 23.6658C26.9411 23.4954 27.0156 23.3168 27.0739 23.1325C27.116 22.9997 27.1494 22.8642 27.1737 22.7268C27.198 22.5905 27.2134 22.4528 27.2201 22.3144C27.2269 22.1761 27.2251 22.0375 27.2149 21.8995C27.2046 21.7604 27.1863 21.6221 27.1601 21.4853C27.1335 21.3468 27.0994 21.21 27.0581 21.0754C27.0158 20.9384 26.9667 20.8039 26.9109 20.6722C26.8538 20.5378 26.7903 20.4063 26.7206 20.2783C26.6934 20.2282 26.6652 20.1786 26.6362 20.1296C26.7027 20.054 26.7679 19.9771 26.8316 19.899C26.9453 19.7599 27.0539 19.6164 27.157 19.4689C27.2544 19.3294 27.3457 19.1857 27.4309 19.038C27.5117 18.8977 27.5857 18.7532 27.6526 18.6053C27.7165 18.4635 27.7727 18.3181 27.8209 18.1698C27.8676 18.0263 27.9056 17.88 27.9347 17.7317C27.9632 17.5864 27.9824 17.4394 27.9924 17.2916C28.0022 17.1446 28.0025 16.9978 27.9934 16.8511C27.9779 16.5988 27.9348 16.349 27.8649 16.1066C27.7969 15.8698 27.7046 15.6413 27.5907 15.4199C27.4793 15.203 27.3471 14.9929 27.1972 14.7884C27.0504 14.5882 26.8865 14.3934 26.7082 14.2027C26.5332 14.0153 26.3443 13.832 26.1445 13.6513C25.9474 13.4731 25.7397 13.2975 25.5243 13.1234C25.3071 12.9485 25.0873 12.7771 24.865 12.6091C24.6416 12.4397 24.4137 12.2704 24.1841 12.0998L24.0794 12.0218L24.0267 11.9826L23.9739 11.9433L23.7069 11.7437L23.4885 11.5792L23.3215 11.4524C23.2037 11.367 23.0905 11.2751 22.9823 11.1771C22.8884 11.0919 22.7994 11.0011 22.7158 10.9052C22.6426 10.821 22.5747 10.7321 22.5125 10.639C22.4584 10.558 22.41 10.4732 22.3676 10.3851C22.3312 10.3094 22.3006 10.2308 22.2761 10.1502C22.2554 10.0818 22.2406 10.0117 22.2319 9.94063C22.2246 9.88162 22.2232 9.82199 22.2276 9.76268C22.2312 9.71442 22.2402 9.66676 22.2545 9.62065C22.2685 9.57627 22.287 9.53448 22.3101 9.49526C22.3342 9.45448 22.3626 9.41658 22.3948 9.38226C22.4312 9.34346 22.4713 9.3085 22.5145 9.2779C22.5651 9.24191 22.6186 9.21041 22.6744 9.18373C22.7399 9.15233 22.8074 9.12573 22.8765 9.10413C22.9565 9.07908 23.0379 9.0589 23.1203 9.0437C23.2141 9.02628 23.3086 9.01366 23.4036 9.0059C23.5103 8.99713 23.6173 8.99297 23.7243 8.99345C23.8937 8.99932 24.051 9.02351 24.1889 9.06227C24.3174 9.09846 24.4281 9.14722 24.523 9.20508C24.6073 9.25618 24.6846 9.31875 24.7527 9.39109C24.8122 9.45469 24.8642 9.52527 24.9077 9.60136C24.9467 9.66946 24.9793 9.74115 25.0053 9.8155C25.0297 9.8849 25.0461 9.94953 25.0573 10.0051C25.0681 10.0593 25.0739 10.1047 25.0769 10.1368L25.0987 10.5155H27.5063C27.5423 10.2547 27.5363 9.94347 27.4789 9.61078C27.4438 9.40836 27.3926 9.20925 27.3258 9.01545C27.2544 8.80729 27.1659 8.60576 27.0613 8.41302C26.9503 8.20836 26.8211 8.0147 26.6755 7.83452C26.5209 7.64345 26.3478 7.46915 26.1588 7.31433C25.9564 7.14878 25.7371 7.00645 25.5048 6.88985ZM21.4823 14.6774C21.4996 14.6116 21.716 14.2795 22.1314 13.681L22.2089 13.7408L22.318 13.8227L22.5355 13.985L22.7514 14.1458C23.1185 14.4185 23.4805 14.6874 23.818 14.9528C24.1485 15.2127 24.4551 15.4688 24.7185 15.7218C24.9679 15.9613 25.1778 16.1966 25.3276 16.4298C25.454 16.6266 25.5377 16.8191 25.5498 17.0113C25.5553 17.1008 25.5434 17.1948 25.5175 17.2935C25.4875 17.4078 25.4388 17.5272 25.3736 17.6517C25.3026 17.7872 25.2127 17.9279 25.1048 18.0738C25.0662 18.126 25.0266 18.1773 24.986 18.2278L24.9089 18.3181C24.8681 18.2881 24.834 18.2624 24.8005 18.2372L24.7913 18.2303L24.6819 18.1482L24.4643 17.9858L24.2485 17.825C23.8813 17.5523 23.5193 17.2834 23.1819 17.0181C22.8514 16.7581 22.5447 16.502 22.2813 16.249C22.032 16.0096 21.8221 15.7743 21.6722 15.541C21.5458 15.3442 21.4621 15.1518 21.4501 14.9596C21.4446 14.8701 21.4564 14.776 21.4823 14.6774Z" fill="var(--fill-0, white)"/>
<path id="Vector_3" d="M14 38H38C39.0609 38 40.0783 37.5786 40.8284 36.8284C41.5786 36.0783 42 35.0609 42 34V32C42 31.4696 41.7893 30.9609 41.4142 30.5858C41.0391 30.2107 40.5304 30 40 30H20C19.4696 30 18.9609 30.2107 18.5858 30.5858C18.2107 30.9609 18 31.4696 18 32V34C18 35.0609 17.5786 36.0783 16.8284 36.8284C16.0783 37.5786 15.0609 38 14 38ZM14 38C12.9391 38 11.9217 37.5786 11.1716 36.8284C10.4214 36.0783 10 35.0609 10 34V6C10 4.93913 9.57857 3.92172 8.82843 3.17157C8.07828 2.42143 7.06087 2 6 2C4.93913 2 3.92172 2.42143 3.17157 3.17157C2.42143 3.92172 2 4.93913 2 6V10C2 10.5304 2.21071 11.0391 2.58579 11.4142C2.96086 11.7893 3.46957 12 4 12H10" stroke="var(--stroke-0, white)" stroke-width="4" stroke-linecap="round" stroke-linejoin="round"/>
</g>
</svg>
