<svg preserveAspectRatio="none" width="100%" height="100%" overflow="visible" style="display: block;" viewBox="0 0 28 28" fill="none" xmlns="http://www.w3.org/2000/svg">
<g id="uil:house-user">
<path id="Vector" d="M25.2747 11.9607L14.7747 2.62733C14.5612 2.43774 14.2855 2.33302 14 2.33302C13.7145 2.33302 13.4388 2.43774 13.2253 2.62733L2.72533 11.9607C2.49389 12.1661 2.35354 12.4551 2.33516 12.764C2.31678 13.073 2.42188 13.3766 2.62733 13.608C2.83279 13.8394 3.12177 13.9798 3.4307 13.9982C3.73964 14.0166 4.04322 13.9115 4.27467 13.706L4.66667 13.3572V24.5C4.66667 24.8094 4.78958 25.1062 5.00838 25.325C5.22717 25.5438 5.52391 25.6667 5.83333 25.6667H22.1667C22.4761 25.6667 22.7728 25.5438 22.9916 25.325C23.2104 25.1062 23.3333 24.8094 23.3333 24.5V13.3572L23.7253 13.706C23.9568 13.9115 24.2604 14.0166 24.5693 13.9982C24.7223 13.9891 24.8719 13.9499 25.0098 13.883C25.1476 13.816 25.2709 13.7226 25.3727 13.608C25.4744 13.4934 25.5526 13.3599 25.6027 13.2151C25.6528 13.0703 25.6739 12.917 25.6648 12.764C25.6557 12.6111 25.6166 12.4614 25.5497 12.3235C25.4827 12.1857 25.3893 12.0624 25.2747 11.9607ZM10.7147 23.3333C10.9523 22.6514 11.3962 22.0602 11.9849 21.6419C12.5736 21.2236 13.2778 20.9989 14 20.9989C14.7222 20.9989 15.4264 21.2236 16.0151 21.6419C16.6038 22.0602 17.0477 22.6514 17.2853 23.3333H10.7147ZM12.25 16.9167C12.25 16.5705 12.3526 16.2322 12.5449 15.9444C12.7372 15.6566 13.0105 15.4323 13.3303 15.2999C13.6501 15.1674 14.0019 15.1328 14.3414 15.2003C14.6809 15.2678 14.9927 15.4345 15.2374 15.6792C15.4822 15.924 15.6489 16.2358 15.7164 16.5753C15.7839 16.9147 15.7492 17.2666 15.6168 17.5864C15.4843 17.9061 15.26 18.1794 14.9722 18.3717C14.6845 18.564 14.3461 18.6667 14 18.6667C13.5359 18.6667 13.0908 18.4823 12.7626 18.1541C12.4344 17.8259 12.25 17.3808 12.25 16.9167ZM21 23.3333H19.7155C19.5542 22.5598 19.2374 21.8272 18.7843 21.1798C18.3313 20.5324 17.7515 19.9838 17.08 19.5673C17.7229 18.8335 18.0792 17.8923 18.0833 16.9167C18.0833 15.8337 17.6531 14.7951 16.8874 14.0293C16.1216 13.2635 15.083 12.8333 14 12.8333C12.917 12.8333 11.8784 13.2635 11.1126 14.0293C10.3469 14.7951 9.91667 15.8337 9.91667 16.9167C9.9208 17.8923 10.2771 18.8335 10.92 19.5673C10.2483 19.9837 9.66827 20.5323 9.21503 21.1796C8.76178 21.827 8.44481 22.5597 8.28333 23.3333H7V11.2828L14 5.061L21 11.2828V23.3333Z" fill="var(--fill-0, white)"/>
</g>
</svg>
