<svg preserveAspectRatio="none" width="100%" height="100%" overflow="visible" style="display: block;" viewBox="0 0 22 22" fill="none" xmlns="http://www.w3.org/2000/svg">
<g id="uil:history">
<path id="Vector" d="M11 1.83333C8.65002 1.84004 6.39237 2.749 4.69333 4.3725V2.75C4.69333 2.50688 4.59676 2.27373 4.42485 2.10182C4.25294 1.92991 4.01978 1.83333 3.77667 1.83333C3.53355 1.83333 3.30039 1.92991 3.12849 2.10182C2.95658 2.27373 2.86 2.50688 2.86 2.75V6.875C2.86 7.11811 2.95658 7.35127 3.12849 7.52318C3.30039 7.69509 3.53355 7.79167 3.77667 7.79167H7.90167C8.14478 7.79167 8.37794 7.69509 8.54985 7.52318C8.72176 7.35127 8.81833 7.11811 8.81833 6.875C8.81833 6.63188 8.72176 6.39873 8.54985 6.22682C8.37794 6.05491 8.14478 5.95833 7.90167 5.95833H5.70167C6.8803 4.72666 8.45121 3.9441 10.1443 3.7452C11.8374 3.54629 13.5469 3.94348 14.9789 4.86846C16.4109 5.79344 17.4759 7.18842 17.9908 8.81356C18.5057 10.4387 18.4383 12.1924 17.8002 13.7733C17.1621 15.3541 15.9932 16.6633 14.4945 17.4756C12.9957 18.288 11.2608 18.5528 9.58793 18.2246C7.91507 17.8963 6.40884 16.9955 5.32821 15.677C4.24757 14.3585 3.66005 12.7047 3.66667 11C3.66667 10.7569 3.57009 10.5237 3.39818 10.3518C3.22627 10.1799 2.99312 10.0833 2.75 10.0833C2.50688 10.0833 2.27373 10.1799 2.10182 10.3518C1.92991 10.5237 1.83333 10.7569 1.83333 11C1.83333 12.813 2.37095 14.5853 3.3782 16.0927C4.38544 17.6002 5.81708 18.7751 7.49207 19.4689C9.16706 20.1627 11.0102 20.3442 12.7883 19.9905C14.5665 19.6368 16.1998 18.7638 17.4818 17.4818C18.7638 16.1998 19.6368 14.5665 19.9905 12.7883C20.3442 11.0102 20.1627 9.16706 19.4689 7.49207C18.7751 5.81708 17.6002 4.38544 16.0927 3.3782C14.5853 2.37095 12.813 1.83333 11 1.83333ZM11 7.33333C10.7569 7.33333 10.5237 7.42991 10.3518 7.60182C10.1799 7.77373 10.0833 8.00688 10.0833 8.25V11C10.0833 11.2431 10.1799 11.4763 10.3518 11.6482C10.5237 11.8201 10.7569 11.9167 11 11.9167H12.8333C13.0764 11.9167 13.3096 11.8201 13.4815 11.6482C13.6534 11.4763 13.75 11.2431 13.75 11C13.75 10.7569 13.6534 10.5237 13.4815 10.3518C13.3096 10.1799 13.0764 10.0833 12.8333 10.0833H11.9167V8.25C11.9167 8.00688 11.8201 7.77373 11.6482 7.60182C11.4763 7.42991 11.2431 7.33333 11 7.33333Z" fill="var(--fill-0, white)"/>
</g>
</svg>
