<svg preserveAspectRatio="none" width="100%" height="100%" overflow="visible" style="display: block;" viewBox="0 0 32 32" fill="none" xmlns="http://www.w3.org/2000/svg">
<g id="uil:house-user">
<path id="Vector" d="M28.8853 13.6693L16.8853 3.00267C16.6413 2.78598 16.3263 2.66631 16 2.66631C15.6737 2.66631 15.3587 2.78598 15.1147 3.00267L3.11467 13.6693C2.85016 13.9041 2.68976 14.2344 2.66875 14.5875C2.64775 14.9405 2.76786 15.2875 3.00267 15.552C3.23747 15.8165 3.56774 15.9769 3.9208 15.9979C4.27387 16.0189 4.62082 15.8988 4.88533 15.664L5.33333 15.2653V28C5.33333 28.3536 5.47381 28.6928 5.72386 28.9428C5.97391 29.1929 6.31304 29.3333 6.66667 29.3333H25.3333C25.687 29.3333 26.0261 29.1929 26.2761 28.9428C26.5262 28.6928 26.6667 28.3536 26.6667 28V15.2653L27.1147 15.664C27.3792 15.8988 27.7261 16.0189 28.0792 15.9979C28.254 15.9875 28.4251 15.9428 28.5826 15.8663C28.7401 15.7898 28.8811 15.683 28.9973 15.552C29.1136 15.421 29.2029 15.2684 29.2602 15.1029C29.3175 14.9375 29.3416 14.7623 29.3312 14.5875C29.3208 14.4126 29.2761 14.2416 29.1996 14.0841C29.1231 13.9265 29.0163 13.7856 28.8853 13.6693ZM12.2453 26.6667C12.5169 25.8873 13.0242 25.2117 13.697 24.7336C14.3698 24.2556 15.1747 23.9987 16 23.9987C16.8253 23.9987 17.6302 24.2556 18.303 24.7336C18.9758 25.2117 19.4831 25.8873 19.7547 26.6667H12.2453ZM14 19.3333C14 18.9378 14.1173 18.5511 14.3371 18.2222C14.5568 17.8933 14.8692 17.6369 15.2346 17.4856C15.6001 17.3342 16.0022 17.2946 16.3902 17.3718C16.7781 17.4489 17.1345 17.6394 17.4142 17.9191C17.6939 18.1988 17.8844 18.5552 17.9616 18.9432C18.0387 19.3311 17.9991 19.7332 17.8478 20.0987C17.6964 20.4642 17.44 20.7765 17.1111 20.9963C16.7822 21.216 16.3956 21.3333 16 21.3333C15.4696 21.3333 14.9609 21.1226 14.5858 20.7475C14.2107 20.3725 14 19.8638 14 19.3333ZM24 26.6667H22.532C22.3476 25.7827 21.9856 24.9453 21.4678 24.2055C20.95 23.4656 20.2874 22.8387 19.52 22.3627C20.2548 21.524 20.6619 20.4483 20.6667 19.3333C20.6667 18.0957 20.175 16.9087 19.2998 16.0335C18.4247 15.1583 17.2377 14.6667 16 14.6667C14.7623 14.6667 13.5753 15.1583 12.7002 16.0335C11.825 16.9087 11.3333 18.0957 11.3333 19.3333C11.3381 20.4483 11.7452 21.524 12.48 22.3627C11.7124 22.8385 11.0495 23.4654 10.5315 24.2053C10.0135 24.9452 9.65121 25.7826 9.46667 26.6667H8V12.8947L16 5.784L24 12.8947V26.6667Z" fill="var(--fill-0, black)"/>
</g>
</svg>
