<svg preserveAspectRatio="none" width="100%" height="100%" overflow="visible" style="display: block;" viewBox="0 0 32 32" fill="none" xmlns="http://www.w3.org/2000/svg">
<g id="uil:clock">
<path id="Vector" d="M20.1307 16.8453L17.3333 15.2307V9.33333C17.3333 8.97971 17.1929 8.64057 16.9428 8.39052C16.6928 8.14048 16.3536 8 16 8C15.6464 8 15.3072 8.14048 15.0572 8.39052C14.8071 8.64057 14.6667 8.97971 14.6667 9.33333V16C14.6667 16.234 14.7283 16.464 14.8453 16.6666C14.9623 16.8693 15.1306 17.0376 15.3333 17.1547L18.7973 19.1547C18.949 19.2436 19.1168 19.3016 19.291 19.3255C19.4653 19.3493 19.6425 19.3384 19.8125 19.2935C19.9825 19.2485 20.1419 19.1704 20.2816 19.0636C20.4213 18.9568 20.5384 18.8234 20.6264 18.6711C20.7143 18.5188 20.7712 18.3507 20.7939 18.1763C20.8165 18.0019 20.8045 17.8248 20.7584 17.6551C20.7123 17.4854 20.6332 17.3265 20.5254 17.1875C20.4177 17.0485 20.2835 16.9322 20.1307 16.8453ZM16 2.66667C13.3629 2.66667 10.7851 3.44865 8.5924 4.91374C6.39974 6.37882 4.69077 8.46121 3.68161 10.8976C2.67244 13.3339 2.40839 16.0148 2.92286 18.6012C3.43733 21.1876 4.70721 23.5634 6.57191 25.4281C8.43661 27.2928 10.8124 28.5627 13.3988 29.0771C15.9852 29.5916 18.6661 29.3276 21.1024 28.3184C23.5388 27.3092 25.6212 25.6003 27.0863 23.4076C28.5513 21.2149 29.3333 18.6371 29.3333 16C29.3298 12.4649 27.9239 9.07553 25.4242 6.57581C22.9245 4.07609 19.5351 2.6702 16 2.66667ZM16 26.6667C13.8903 26.6667 11.828 26.0411 10.0739 24.869C8.31979 23.6969 6.95262 22.031 6.14529 20.082C5.33795 18.1329 5.12672 15.9882 5.53829 13.919C5.94987 11.8499 6.96577 9.94929 8.45753 8.45753C9.94929 6.96577 11.8499 5.94987 13.919 5.53829C15.9882 5.12671 18.1329 5.33795 20.082 6.14529C22.031 6.95262 23.6969 8.31979 24.869 10.0739C26.0411 11.828 26.6667 13.8903 26.6667 16C26.6631 18.8279 25.5382 21.5389 23.5386 23.5386C21.539 25.5382 18.8279 26.6631 16 26.6667Z" fill="var(--fill-0, black)"/>
</g>
</svg>
