<svg preserveAspectRatio="none" width="100%" height="100%" overflow="visible" style="display: block;" viewBox="0 0 16 16" fill="none" xmlns="http://www.w3.org/2000/svg">
<g id="uil:redo">
<path id="Vector" d="M14 7.33333C13.8232 7.33333 13.6536 7.40357 13.5286 7.5286C13.4036 7.65362 13.3333 7.82319 13.3333 8C13.3413 9.24869 12.9135 10.4611 12.1238 11.4283C11.334 12.3955 10.2317 13.0571 9.00664 13.2991C7.78159 13.541 6.51052 13.3482 5.41233 12.7539C4.31415 12.1595 3.4576 11.2008 2.99021 10.0428C2.52283 8.88489 2.47386 7.60021 2.85175 6.41005C3.22963 5.21989 4.01071 4.19876 5.06047 3.52252C6.11022 2.84628 7.36293 2.55728 8.60284 2.70527C9.84275 2.85327 10.9922 3.42901 11.8533 4.33333H10.2533C10.0765 4.33333 9.90695 4.40357 9.78193 4.5286C9.65691 4.65362 9.58667 4.82319 9.58667 5C9.58667 5.17681 9.65691 5.34638 9.78193 5.4714C9.90695 5.59643 10.0765 5.66667 10.2533 5.66667H13.2733C13.4501 5.66667 13.6197 5.59643 13.7447 5.4714C13.8698 5.34638 13.94 5.17681 13.94 5V2C13.94 1.82319 13.8698 1.65362 13.7447 1.5286C13.6197 1.40357 13.4501 1.33333 13.2733 1.33333C13.0965 1.33333 12.927 1.40357 12.8019 1.5286C12.6769 1.65362 12.6067 1.82319 12.6067 2V3.18C11.4964 2.11871 10.0538 1.4733 8.52268 1.35289C6.99152 1.23247 5.46575 1.64443 4.20328 2.51913C2.94081 3.39382 2.01907 4.6776 1.59389 6.15346C1.1687 7.62932 1.26614 9.20672 1.86974 10.619C2.47334 12.0313 3.54607 13.1919 4.9066 13.9046C6.26713 14.6172 7.832 14.8383 9.33669 14.5303C10.8414 14.2224 12.1936 13.4043 13.1648 12.2144C14.1359 11.0246 14.6664 9.53588 14.6667 8C14.6667 7.82319 14.5964 7.65362 14.4714 7.5286C14.3464 7.40357 14.1768 7.33333 14 7.33333Z" fill="var(--fill-0, black)"/>
</g>
</svg>
