<svg preserveAspectRatio="none" width="100%" height="100%" overflow="visible" style="display: block;" viewBox="0 0 48 48" fill="none" xmlns="http://www.w3.org/2000/svg">
<g id="uil:cloud-upload">
<path id="Vector" d="M36.84 16.44C35.618 13.632 33.509 11.3022 30.8361 9.80745C28.1633 8.31275 25.0741 7.73566 22.0419 8.16462C19.0097 8.59357 16.2019 10.0049 14.0485 12.1823C11.8952 14.3598 10.5152 17.1832 10.12 20.22C8.21317 20.6766 6.54044 21.8177 5.41947 23.4264C4.29851 25.0351 3.80737 26.9995 4.03933 28.9464C4.27129 30.8934 5.21019 32.6874 6.67773 33.9877C8.14528 35.288 10.0393 36.0041 12 36C12.5304 36 13.0391 35.7893 13.4142 35.4142C13.7893 35.0391 14 34.5304 14 34C14 33.4696 13.7893 32.9609 13.4142 32.5858C13.0391 32.2107 12.5304 32 12 32C10.9391 32 9.92172 31.5786 9.17157 30.8284C8.42143 30.0783 8 29.0609 8 28C8 26.9391 8.42143 25.9217 9.17157 25.1716C9.92172 24.4214 10.9391 24 12 24C12.5304 24 13.0391 23.7893 13.4142 23.4142C13.7893 23.0391 14 22.5304 14 22C14.0051 19.6346 14.8486 17.3475 16.3805 15.5452C17.9125 13.7428 20.0338 12.5419 22.3675 12.1557C24.7012 11.7696 27.0963 12.2232 29.1271 13.436C31.158 14.6488 32.6932 16.5423 33.46 18.78C33.5743 19.1237 33.7798 19.4299 34.0546 19.6659C34.3293 19.9019 34.663 20.0588 35.02 20.12C36.3521 20.3717 37.5597 21.0672 38.4461 22.0931C39.3324 23.1189 39.8451 24.4147 39.9008 25.7693C39.9565 27.1238 39.5518 28.4573 38.7526 29.5525C37.9535 30.6476 36.807 31.4398 35.5 31.8C34.9855 31.9326 34.5447 32.2642 34.2747 32.7218C34.0046 33.1794 33.9274 33.7255 34.06 34.24C34.1926 34.7545 34.5242 35.1953 34.9818 35.4653C35.4394 35.7354 35.9855 35.8126 36.5 35.68C38.6048 35.1238 40.4706 33.896 41.814 32.1829C43.1575 30.4699 43.9052 28.3652 43.9437 26.1885C43.9821 24.0119 43.3092 21.8821 42.0271 20.1226C40.745 18.3632 38.9238 17.0702 36.84 16.44ZM25.42 20.58C25.2298 20.3979 25.0055 20.2552 24.76 20.16C24.2731 19.96 23.7269 19.96 23.24 20.16C22.9945 20.2552 22.7702 20.3979 22.58 20.58L16.58 26.58C16.2034 26.9566 15.9918 27.4674 15.9918 28C15.9918 28.5326 16.2034 29.0434 16.58 29.42C16.9566 29.7966 17.4674 30.0082 18 30.0082C18.5326 30.0082 19.0434 29.7966 19.42 29.42L22 26.82V38C22 38.5304 22.2107 39.0391 22.5858 39.4142C22.9609 39.7893 23.4696 40 24 40C24.5304 40 25.0391 39.7893 25.4142 39.4142C25.7893 39.0391 26 38.5304 26 38V26.82L28.58 29.42C28.7659 29.6075 28.9871 29.7562 29.2308 29.8578C29.4746 29.9593 29.736 30.0116 30 30.0116C30.264 30.0116 30.5254 29.9593 30.7692 29.8578C31.0129 29.7562 31.2341 29.6075 31.42 29.42C31.6075 29.2341 31.7562 29.0129 31.8578 28.7692C31.9593 28.5254 32.0116 28.264 32.0116 28C32.0116 27.736 31.9593 27.4746 31.8578 27.2308C31.7562 26.9871 31.6075 26.7659 31.42 26.58L25.42 20.58Z" fill="var(--fill-0, black)"/>
</g>
</svg>
