<svg preserveAspectRatio="none" width="100%" height="100%" overflow="visible" style="display: block;" viewBox="0 0 20 20" fill="none" xmlns="http://www.w3.org/2000/svg">
<g id="uil:search">
<path id="Vector" d="M18.0917 16.9083L15 13.8417C16.2001 12.3453 16.7813 10.4461 16.624 8.53442C16.4668 6.62275 15.5831 4.84399 14.1546 3.56387C12.7261 2.28376 10.8615 1.59959 8.9441 1.65206C7.0267 1.70453 5.20227 2.48963 3.84595 3.84595C2.48963 5.20227 1.70453 7.0267 1.65206 8.9441C1.59959 10.8615 2.28375 12.7261 3.56387 14.1546C4.84399 15.5831 6.62275 16.4668 8.53442 16.624C10.4461 16.7813 12.3453 16.2001 13.8417 15L16.9083 18.0667C16.9858 18.1448 17.078 18.2068 17.1795 18.2491C17.2811 18.2914 17.39 18.3132 17.5 18.3132C17.61 18.3132 17.7189 18.2914 17.8205 18.2491C17.922 18.2068 18.0142 18.1448 18.0917 18.0667C18.2419 17.9113 18.3258 17.7036 18.3258 17.4875C18.3258 17.2714 18.2419 17.0637 18.0917 16.9083ZM9.16667 15C8.01294 15 6.88513 14.6579 5.92584 14.0169C4.96655 13.3759 4.21888 12.4649 3.77737 11.399C3.33586 10.3331 3.22034 9.1602 3.44542 8.02864C3.6705 6.89708 4.22607 5.85768 5.04188 5.04188C5.85768 4.22607 6.89708 3.6705 8.02864 3.44542C9.1602 3.22034 10.3331 3.33586 11.399 3.77737C12.4649 4.21888 13.3759 4.96655 14.0169 5.92584C14.6579 6.88513 15 8.01294 15 9.16667C15 10.7138 14.3854 12.1975 13.2915 13.2915C12.1975 14.3854 10.7138 15 9.16667 15Z" fill="var(--fill-0, #A4B0CF)"/>
</g>
</svg>
