<svg preserveAspectRatio="none" width="100%" height="100%" overflow="visible" style="display: block;" viewBox="0 0 34 34" fill="none" xmlns="http://www.w3.org/2000/svg">
<g id="uil:trash-alt">
<rect width="34" height="34" rx="17" fill="var(--fill-0, white)"/>
<path id="Vector" d="M15.4 21.8C15.6122 21.8 15.8157 21.7157 15.9657 21.5657C16.1157 21.4157 16.2 21.2122 16.2 21V16.2C16.2 15.9878 16.1157 15.7843 15.9657 15.6343C15.8157 15.4843 15.6122 15.4 15.4 15.4C15.1878 15.4 14.9843 15.4843 14.8343 15.6343C14.6843 15.7843 14.6 15.9878 14.6 16.2V21C14.6 21.2122 14.6843 21.4157 14.8343 21.5657C14.9843 21.7157 15.1878 21.8 15.4 21.8ZM23.4 12.2H20.2V11.4C20.2 10.7635 19.9471 10.153 19.4971 9.70294C19.047 9.25286 18.4365 9 17.8 9H16.2C15.5635 9 14.953 9.25286 14.5029 9.70294C14.0529 10.153 13.8 10.7635 13.8 11.4V12.2H10.6C10.3878 12.2 10.1843 12.2843 10.0343 12.4343C9.88428 12.5843 9.8 12.7878 9.8 13C9.8 13.2122 9.88428 13.4157 10.0343 13.5657C10.1843 13.7157 10.3878 13.8 10.6 13.8H11.4V22.6C11.4 23.2365 11.6529 23.847 12.1029 24.2971C12.553 24.7471 13.1635 25 13.8 25H20.2C20.8365 25 21.447 24.7471 21.8971 24.2971C22.3471 23.847 22.6 23.2365 22.6 22.6V13.8H23.4C23.6122 13.8 23.8157 13.7157 23.9657 13.5657C24.1157 13.4157 24.2 13.2122 24.2 13C24.2 12.7878 24.1157 12.5843 23.9657 12.4343C23.8157 12.2843 23.6122 12.2 23.4 12.2ZM15.4 11.4C15.4 11.1878 15.4843 10.9843 15.6343 10.8343C15.7843 10.6843 15.9878 10.6 16.2 10.6H17.8C18.0122 10.6 18.2157 10.6843 18.3657 10.8343C18.5157 10.9843 18.6 11.1878 18.6 11.4V12.2H15.4V11.4ZM21 22.6C21 22.8122 20.9157 23.0157 20.7657 23.1657C20.6157 23.3157 20.4122 23.4 20.2 23.4H13.8C13.5878 23.4 13.3843 23.3157 13.2343 23.1657C13.0843 23.0157 13 22.8122 13 22.6V13.8H21V22.6ZM18.6 21.8C18.8122 21.8 19.0157 21.7157 19.1657 21.5657C19.3157 21.4157 19.4 21.2122 19.4 21V16.2C19.4 15.9878 19.3157 15.7843 19.1657 15.6343C19.0157 15.4843 18.8122 15.4 18.6 15.4C18.3878 15.4 18.1843 15.4843 18.0343 15.6343C17.8843 15.7843 17.8 15.9878 17.8 16.2V21C17.8 21.2122 17.8843 21.4157 18.0343 21.5657C18.1843 21.7157 18.3878 21.8 18.6 21.8Z" fill="var(--fill-0, #CC0000)"/>
</g>
</svg>
