<svg preserveAspectRatio="none" width="100%" height="100%" overflow="visible" style="display: block;" viewBox="0 0 32 32" fill="none" xmlns="http://www.w3.org/2000/svg">
<g id="uil:incoming-call">
<path id="Vector" d="M20.7333 12C20.8996 12.0623 21.0758 12.094 21.2533 12.0933H26.5867C26.9403 12.0933 27.2794 11.9529 27.5295 11.7028C27.7795 11.4528 27.92 11.1136 27.92 10.76C27.92 10.4064 27.7795 10.0672 27.5295 9.81719C27.2794 9.56714 26.9403 9.42667 26.5867 9.42667H24.4667L28.8533 5.04C28.9929 4.92047 29.1063 4.77338 29.1863 4.60796C29.2663 4.44254 29.3113 4.26236 29.3184 4.07874C29.3255 3.89511 29.2946 3.712 29.2275 3.5409C29.1605 3.3698 29.0588 3.21441 28.9289 3.08447C28.7989 2.95453 28.6435 2.85285 28.4724 2.78582C28.3013 2.71878 28.1182 2.68784 27.9346 2.69494C27.751 2.70203 27.5708 2.747 27.4054 2.82703C27.24 2.90706 27.0929 3.02042 26.9733 3.16L22.5867 7.53333V5.41333C22.5867 5.05971 22.4462 4.72057 22.1961 4.47052C21.9461 4.22048 21.607 4.08 21.2533 4.08C20.8997 4.08 20.5606 4.22048 20.3105 4.47052C20.0605 4.72057 19.92 5.05971 19.92 5.41333V10.7467C19.9194 10.9242 19.951 11.1004 20.0133 11.2667C20.0789 11.4305 20.1762 11.5796 20.2998 11.7055C20.4234 11.8314 20.5708 11.9315 20.7333 12ZM25.92 17.3333C25.6267 17.3333 25.32 17.24 25.0267 17.1733C24.4326 17.0426 23.8488 16.8688 23.28 16.6533C22.6614 16.4283 21.9815 16.44 21.3711 16.6861C20.7606 16.9323 20.2628 17.3955 19.9733 17.9867L19.68 18.5867C18.3815 17.864 17.1882 16.9667 16.1333 15.92C15.0866 14.8651 14.1894 13.6718 13.4667 12.3733L14.0267 12C14.6178 11.7106 15.081 11.2127 15.3272 10.6023C15.5733 9.9918 15.585 9.31188 15.36 8.69333C15.147 8.12365 14.9733 7.54007 14.84 6.94667C14.7733 6.65333 14.72 6.34667 14.68 6.04C14.5181 5.10083 14.0262 4.25032 13.2928 3.64165C12.5595 3.03298 11.6329 2.70615 10.68 2.72H6.68C6.10538 2.7146 5.53633 2.83308 5.01161 3.06737C4.48689 3.30166 4.01881 3.64626 3.63924 4.07771C3.25967 4.50916 2.97751 5.01732 2.81198 5.56762C2.64646 6.11791 2.60144 6.69741 2.68 7.26667C3.39032 12.8525 5.94137 18.0425 9.9302 22.0168C13.919 25.9912 19.1183 28.5233 24.7067 29.2133H25.2133C26.1966 29.2148 27.1459 28.854 27.88 28.2C28.3018 27.8227 28.6388 27.3602 28.8686 26.8431C29.0985 26.3259 29.216 25.7659 29.2133 25.2V21.2C29.197 20.2738 28.8597 19.3821 28.2591 18.6769C27.6585 17.9717 26.8318 17.4968 25.92 17.3333ZM26.5867 25.3333C26.5864 25.5226 26.5459 25.7097 26.4677 25.8822C26.3895 26.0546 26.2756 26.2084 26.1333 26.3333C25.9844 26.462 25.8101 26.5581 25.6219 26.6155C25.4336 26.6729 25.2354 26.6903 25.04 26.6667C20.0465 26.0264 15.4083 23.742 11.857 20.1737C8.30559 16.6055 6.04321 11.9564 5.42667 6.96C5.40622 6.76473 5.42518 6.56733 5.48244 6.37952C5.5397 6.19172 5.63409 6.01732 5.76 5.86667C5.88495 5.72444 6.03875 5.61045 6.21117 5.53229C6.38359 5.45412 6.57069 5.41357 6.76 5.41333H10.76C11.0701 5.40643 11.3728 5.50784 11.6162 5.70009C11.8596 5.89235 12.0283 6.16343 12.0933 6.46667C12.1467 6.83111 12.2133 7.19111 12.2933 7.54667C12.4468 8.24967 12.6518 8.94042 12.9067 9.61333L11.04 10.48C10.8804 10.5532 10.7368 10.6573 10.6175 10.7861C10.4983 10.915 10.4056 11.0662 10.3449 11.2309C10.2842 11.3957 10.2566 11.5708 10.2638 11.7463C10.271 11.9217 10.3127 12.0941 10.3867 12.2533C12.3065 16.363 15.6103 19.6668 19.72 21.5867C20.0446 21.72 20.4087 21.72 20.7333 21.5867C20.8996 21.5272 21.0524 21.4353 21.1829 21.3162C21.3134 21.1972 21.4189 21.0535 21.4933 20.8933L22.32 19.0267C23.0096 19.2722 23.713 19.477 24.4267 19.64C24.7822 19.72 25.1422 19.7867 25.5067 19.84C25.8099 19.9051 26.081 20.0738 26.2732 20.3171C26.4655 20.5605 26.5669 20.8633 26.56 21.1733L26.5867 25.3333Z" fill="var(--fill-0, black)"/>
</g>
</svg>
