<svg preserveAspectRatio="none" width="100%" height="100%" overflow="visible" style="display: block;" viewBox="0 0 20 20" fill="none" xmlns="http://www.w3.org/2000/svg">
<g id="uil:file-import">
<path id="Vector" d="M9.16667 16.6667H5C4.77899 16.6667 4.56702 16.5789 4.41074 16.4226C4.25446 16.2663 4.16667 16.0543 4.16667 15.8333V4.16667C4.16667 3.94565 4.25446 3.73369 4.41074 3.57741C4.56702 3.42113 4.77899 3.33333 5 3.33333H9.16667V5.83333C9.16667 6.49637 9.43006 7.13226 9.8989 7.6011C10.3677 8.06994 11.0036 8.33333 11.6667 8.33333H14.1667V10C14.1667 10.221 14.2545 10.433 14.4107 10.5893C14.567 10.7455 14.779 10.8333 15 10.8333C15.221 10.8333 15.433 10.7455 15.5893 10.5893C15.7455 10.433 15.8333 10.221 15.8333 10V7.45C15.8247 7.37343 15.808 7.29801 15.7833 7.225V7.15C15.7416 7.06274 15.6883 6.98146 15.625 6.90833L10.625 1.90833C10.5519 1.845 10.4706 1.79175 10.3833 1.75C10.3585 1.74623 10.3332 1.74623 10.3083 1.75L10.05 1.66667H5C4.33696 1.66667 3.70107 1.93006 3.23223 2.3989C2.76339 2.86774 2.5 3.50363 2.5 4.16667V15.8333C2.5 16.4964 2.76339 17.1323 3.23223 17.6011C3.70107 18.0699 4.33696 18.3333 5 18.3333H9.16667C9.38768 18.3333 9.59964 18.2455 9.75592 18.0893C9.9122 17.933 10 17.721 10 17.5C10 17.279 9.9122 17.067 9.75592 16.9107C9.59964 16.7545 9.38768 16.6667 9.16667 16.6667ZM10.8333 4.50833L12.9917 6.66667H11.6667C11.4457 6.66667 11.2337 6.57887 11.0774 6.42259C10.9211 6.26631 10.8333 6.05435 10.8333 5.83333V4.50833ZM15.8333 12.5H11.175L12.2583 11.425C12.4153 11.2681 12.5034 11.0553 12.5034 10.8333C12.5034 10.6114 12.4153 10.3986 12.2583 10.2417C12.1014 10.0847 11.8886 9.99659 11.6667 9.99659C11.4447 9.99659 11.2319 10.0847 11.075 10.2417L8.575 12.7417C8.50202 12.8231 8.4429 12.916 8.4 13.0167C8.31665 13.2196 8.31665 13.4471 8.4 13.65C8.43747 13.7534 8.49721 13.8473 8.575 13.925L11.075 16.425C11.1525 16.5031 11.2446 16.5651 11.3462 16.6074C11.4477 16.6497 11.5567 16.6715 11.6667 16.6715C11.7767 16.6715 11.8856 16.6497 11.9871 16.6074C12.0887 16.5651 12.1809 16.5031 12.2583 16.425C12.3364 16.3475 12.3984 16.2554 12.4407 16.1538C12.4831 16.0523 12.5048 15.9433 12.5048 15.8333C12.5048 15.7233 12.4831 15.6144 12.4407 15.5129C12.3984 15.4113 12.3364 15.3191 12.2583 15.2417L11.175 14.1667H15.8333C16.0543 14.1667 16.2663 14.0789 16.4226 13.9226C16.5789 13.7663 16.6667 13.5543 16.6667 13.3333C16.6667 13.1123 16.5789 12.9004 16.4226 12.7441C16.2663 12.5878 16.0543 12.5 15.8333 12.5Z" fill="var(--fill-0, white)"/>
</g>
</svg>
