<svg preserveAspectRatio="none" width="100%" height="100%" overflow="visible" style="display: block;" viewBox="0 0 20 20" fill="none" xmlns="http://www.w3.org/2000/svg">
<g id="uil:plus-circle">
<path id="Vector" d="M10 1.66667C8.35182 1.66667 6.74066 2.15541 5.37025 3.07109C3.99984 3.98677 2.93173 5.28825 2.301 6.81097C1.67027 8.33369 1.50525 10.0092 1.82679 11.6258C2.14833 13.2423 2.94201 14.7271 4.10744 15.8926C5.27288 17.058 6.75774 17.8517 8.37425 18.1732C9.99076 18.4948 11.6663 18.3297 13.189 17.699C14.7117 17.0683 16.0132 16.0002 16.9289 14.6298C17.8446 13.2593 18.3333 11.6482 18.3333 10C18.3333 8.90565 18.1178 7.82202 17.699 6.81097C17.2802 5.79992 16.6664 4.88127 15.8926 4.10744C15.1187 3.33362 14.2001 2.71979 13.189 2.301C12.178 1.88221 11.0943 1.66667 10 1.66667ZM10 16.6667C8.68146 16.6667 7.39253 16.2757 6.2962 15.5431C5.19987 14.8106 4.34539 13.7694 3.8408 12.5512C3.33622 11.333 3.2042 9.99261 3.46143 8.6994C3.71867 7.40619 4.3536 6.21831 5.28595 5.28596C6.2183 4.3536 7.40619 3.71867 8.6994 3.46143C9.9926 3.2042 11.333 3.33622 12.5512 3.8408C13.7694 4.34539 14.8106 5.19987 15.5431 6.2962C16.2757 7.39253 16.6667 8.68146 16.6667 10C16.6667 11.7681 15.9643 13.4638 14.714 14.714C13.4638 15.9643 11.7681 16.6667 10 16.6667ZM13.3333 9.16667H10.8333V6.66667C10.8333 6.44565 10.7455 6.23369 10.5893 6.07741C10.433 5.92113 10.221 5.83333 10 5.83333C9.77899 5.83333 9.56702 5.92113 9.41074 6.07741C9.25446 6.23369 9.16667 6.44565 9.16667 6.66667V9.16667H6.66667C6.44565 9.16667 6.23369 9.25446 6.07741 9.41074C5.92113 9.56703 5.83333 9.77899 5.83333 10C5.83333 10.221 5.92113 10.433 6.07741 10.5893C6.23369 10.7455 6.44565 10.8333 6.66667 10.8333H9.16667V13.3333C9.16667 13.5543 9.25446 13.7663 9.41074 13.9226C9.56702 14.0789 9.77899 14.1667 10 14.1667C10.221 14.1667 10.433 14.0789 10.5893 13.9226C10.7455 13.7663 10.8333 13.5543 10.8333 13.3333V10.8333H13.3333C13.5543 10.8333 13.7663 10.7455 13.9226 10.5893C14.0789 10.433 14.1667 10.221 14.1667 10C14.1667 9.77899 14.0789 9.56703 13.9226 9.41074C13.7663 9.25446 13.5543 9.16667 13.3333 9.16667Z" fill="var(--fill-0, white)"/>
</g>
</svg>
