<svg preserveAspectRatio="none" width="100%" height="100%" overflow="visible" style="display: block;" viewBox="0 0 16 16" fill="none" xmlns="http://www.w3.org/2000/svg">
<g id="uil:house-user">
<path id="Vector" d="M14.4427 6.83467L8.44267 1.50133C8.32066 1.39299 8.16316 1.33316 8 1.33316C7.83684 1.33316 7.67934 1.39299 7.55733 1.50133L1.55733 6.83467C1.42508 6.95207 1.34488 7.1172 1.33438 7.29374C1.32387 7.47027 1.38393 7.64374 1.50133 7.776C1.61874 7.90825 1.78387 7.98845 1.9604 7.99896C2.13694 8.00946 2.31041 7.9494 2.44267 7.832L2.66667 7.63267V14C2.66667 14.1768 2.7369 14.3464 2.86193 14.4714C2.98695 14.5964 3.15652 14.6667 3.33333 14.6667H12.6667C12.8435 14.6667 13.013 14.5964 13.1381 14.4714C13.2631 14.3464 13.3333 14.1768 13.3333 14V7.63267L13.5573 7.832C13.6896 7.9494 13.8631 8.00946 14.0396 7.99896C14.127 7.99376 14.2125 7.97139 14.2913 7.93314C14.3701 7.89488 14.4405 7.84149 14.4987 7.776C14.5568 7.71051 14.6015 7.63422 14.6301 7.55147C14.6588 7.46873 14.6708 7.38115 14.6656 7.29374C14.6604 7.20632 14.6381 7.12079 14.5998 7.04203C14.5615 6.96326 14.5082 6.8928 14.4427 6.83467ZM6.12267 13.3333C6.25843 12.9436 6.5121 12.6058 6.8485 12.3668C7.18489 12.1278 7.58733 11.9994 8 11.9994C8.41267 11.9994 8.81511 12.1278 9.1515 12.3668C9.4879 12.6058 9.74157 12.9436 9.87733 13.3333H6.12267ZM7 9.66667C7 9.46889 7.05865 9.27555 7.16853 9.1111C7.27841 8.94665 7.43459 8.81847 7.61732 8.74279C7.80004 8.6671 8.00111 8.6473 8.19509 8.68588C8.38907 8.72447 8.56725 8.81971 8.70711 8.95956C8.84696 9.09941 8.9422 9.2776 8.98078 9.47158C9.01937 9.66556 8.99957 9.86662 8.92388 10.0494C8.84819 10.2321 8.72002 10.3883 8.55557 10.4981C8.39112 10.608 8.19778 10.6667 8 10.6667C7.73478 10.6667 7.48043 10.5613 7.29289 10.3738C7.10536 10.1862 7 9.93188 7 9.66667ZM12 13.3333H11.266C11.1738 12.8913 10.9928 12.4727 10.7339 12.1027C10.475 11.7328 10.1437 11.4193 9.76 11.1813C10.1274 10.762 10.331 10.2241 10.3333 9.66667C10.3333 9.04783 10.0875 8.45434 9.64991 8.01675C9.21233 7.57917 8.61884 7.33333 8 7.33333C7.38116 7.33333 6.78767 7.57917 6.35008 8.01675C5.9125 8.45434 5.66667 9.04783 5.66667 9.66667C5.66903 10.2241 5.87262 10.762 6.24 11.1813C5.85619 11.4193 5.52473 11.7327 5.26573 12.1026C5.00673 12.4726 4.8256 12.8913 4.73333 13.3333H4V6.44733L8 2.892L12 6.44733V13.3333Z" fill="var(--fill-0, black)"/>
</g>
</svg>
