<svg preserveAspectRatio="none" width="100%" height="100%" overflow="visible" style="display: block;" viewBox="0 0 22 22" fill="none" xmlns="http://www.w3.org/2000/svg">
<g id="uil:times">
<path id="Vector" d="M12.2925 11L16.2342 7.0675C16.4068 6.89489 16.5038 6.66078 16.5038 6.41667C16.5038 6.17256 16.4068 5.93845 16.2342 5.76583C16.0616 5.59322 15.8274 5.49625 15.5833 5.49625C15.3392 5.49625 15.1051 5.59322 14.9325 5.76583L11 9.7075L7.0675 5.76583C6.89489 5.59322 6.66078 5.49625 6.41667 5.49625C6.17256 5.49625 5.93845 5.59322 5.76583 5.76583C5.59322 5.93845 5.49625 6.17256 5.49625 6.41667C5.49625 6.66078 5.59322 6.89489 5.76583 7.0675L9.7075 11L5.76583 14.9325C5.67992 15.0177 5.61172 15.1191 5.56518 15.2308C5.51865 15.3425 5.49469 15.4623 5.49469 15.5833C5.49469 15.7043 5.51865 15.8242 5.56518 15.9359C5.61172 16.0476 5.67992 16.1489 5.76583 16.2342C5.85105 16.3201 5.95243 16.3883 6.06414 16.4348C6.17584 16.4814 6.29566 16.5053 6.41667 16.5053C6.53768 16.5053 6.65749 16.4814 6.7692 16.4348C6.8809 16.3883 6.98228 16.3201 7.0675 16.2342L11 12.2925L14.9325 16.2342C15.0177 16.3201 15.1191 16.3883 15.2308 16.4348C15.3425 16.4814 15.4623 16.5053 15.5833 16.5053C15.7043 16.5053 15.8242 16.4814 15.9359 16.4348C16.0476 16.3883 16.1489 16.3201 16.2342 16.2342C16.3201 16.1489 16.3883 16.0476 16.4348 15.9359C16.4814 15.8242 16.5053 15.7043 16.5053 15.5833C16.5053 15.4623 16.4814 15.3425 16.4348 15.2308C16.3883 15.1191 16.3201 15.0177 16.2342 14.9325L12.2925 11Z" fill="var(--fill-0, white)"/>
</g>
</svg>
