<svg preserveAspectRatio="none" width="100%" height="100%" overflow="visible" style="display: block;" viewBox="0 0 22 22" fill="none" xmlns="http://www.w3.org/2000/svg">
<g id="uil:save">
<path id="Vector" d="M18.9842 8.51583L13.4842 3.01583C13.3997 2.93338 13.3001 2.86801 13.1908 2.82333C13.0771 2.77735 12.956 2.7525 12.8333 2.75H5.5C4.77066 2.75 4.07118 3.03973 3.55546 3.55546C3.03973 4.07118 2.75 4.77065 2.75 5.5V16.5C2.75 17.2293 3.03973 17.9288 3.55546 18.4445C4.07118 18.9603 4.77066 19.25 5.5 19.25H16.5C17.2293 19.25 17.9288 18.9603 18.4445 18.4445C18.9603 17.9288 19.25 17.2293 19.25 16.5V9.16667C19.2507 9.04603 19.2276 8.92644 19.182 8.81475C19.1363 8.70307 19.0691 8.60149 18.9842 8.51583ZM8.25 4.58333H11.9167V6.41667H8.25V4.58333ZM13.75 17.4167H8.25V14.6667C8.25 14.4236 8.34658 14.1904 8.51849 14.0185C8.6904 13.8466 8.92355 13.75 9.16667 13.75H12.8333C13.0765 13.75 13.3096 13.8466 13.4815 14.0185C13.6534 14.1904 13.75 14.4236 13.75 14.6667V17.4167ZM17.4167 16.5C17.4167 16.7431 17.3201 16.9763 17.1482 17.1482C16.9763 17.3201 16.7431 17.4167 16.5 17.4167H15.5833V14.6667C15.5833 13.9373 15.2936 13.2378 14.7779 12.7221C14.2622 12.2064 13.5627 11.9167 12.8333 11.9167H9.16667C8.43732 11.9167 7.73785 12.2064 7.22212 12.7221C6.7064 13.2378 6.41667 13.9373 6.41667 14.6667V17.4167H5.5C5.25689 17.4167 5.02373 17.3201 4.85182 17.1482C4.67991 16.9763 4.58333 16.7431 4.58333 16.5V5.5C4.58333 5.25688 4.67991 5.02373 4.85182 4.85182C5.02373 4.67991 5.25689 4.58333 5.5 4.58333H6.41667V7.33333C6.41667 7.57645 6.51324 7.80961 6.68515 7.98151C6.85706 8.15342 7.09022 8.25 7.33333 8.25H12.8333C13.0765 8.25 13.3096 8.15342 13.4815 7.98151C13.6534 7.80961 13.75 7.57645 13.75 7.33333V5.87583L17.4167 9.5425V16.5Z" fill="var(--fill-0, white)"/>
</g>
</svg>
