<svg preserveAspectRatio="none" width="100%" height="100%" overflow="visible" style="display: block;" viewBox="0 0 28 28" fill="none" xmlns="http://www.w3.org/2000/svg">
<g id="uil:car">
<path id="Vector" d="M7.72333 15.26C7.57856 15.3124 7.44707 15.396 7.3382 15.5049C7.22933 15.6137 7.14573 15.7452 7.09333 15.89C7.00847 16.102 6.98769 16.3343 7.03358 16.558C7.07948 16.7817 7.19001 16.987 7.3515 17.1485C7.51298 17.31 7.7183 17.4205 7.94201 17.4664C8.16572 17.5123 8.39798 17.4915 8.61 17.4067C8.75087 17.3466 8.88093 17.2638 8.995 17.1617C9.09717 17.0476 9.17994 16.9175 9.24 16.7767C9.30531 16.6382 9.33728 16.4864 9.33333 16.3333C9.32904 16.0244 9.20819 15.7286 8.995 15.505C8.83094 15.3431 8.6226 15.2335 8.39628 15.1899C8.16996 15.1462 7.9358 15.1707 7.72333 15.26ZM23.0533 10.5933L21.4667 5.89167C21.2246 5.2071 20.7757 4.61475 20.1821 4.19669C19.5884 3.77862 18.8794 3.55553 18.1533 3.55833H9.84667C9.12058 3.55553 8.4116 3.77862 7.81795 4.19669C7.22429 4.61475 6.77536 5.2071 6.53333 5.89167L4.94667 10.6283C4.20038 10.8238 3.53957 11.2603 3.06697 11.87C2.59437 12.4798 2.33646 13.2286 2.33333 14V18.6667C2.33536 19.3888 2.56069 20.0926 2.97843 20.6816C3.39616 21.2706 3.98586 21.716 4.66667 21.9567V23.3333C4.66667 23.6428 4.78958 23.9395 5.00838 24.1583C5.22717 24.3771 5.52391 24.5 5.83333 24.5C6.14275 24.5 6.4395 24.3771 6.65829 24.1583C6.87708 23.9395 7 23.6428 7 23.3333V22.1667H21V23.3333C21 23.6428 21.1229 23.9395 21.3417 24.1583C21.5605 24.3771 21.8572 24.5 22.1667 24.5C22.4761 24.5 22.7728 24.3771 22.9916 24.1583C23.2104 23.9395 23.3333 23.6428 23.3333 23.3333V21.9567C24.0141 21.716 24.6038 21.2706 25.0216 20.6816C25.4393 20.0926 25.6646 19.3888 25.6667 18.6667V14C25.6635 13.2286 25.4056 12.4798 24.933 11.87C24.4604 11.2603 23.7996 10.8238 23.0533 10.6283V10.5933ZM8.73833 6.62667C8.8166 6.39494 8.96571 6.19368 9.1646 6.05132C9.36349 5.90896 9.60208 5.8327 9.84667 5.83333H18.1533C18.4077 5.82005 18.6595 5.89041 18.8702 6.03367C19.0808 6.17692 19.2388 6.38519 19.32 6.62667L20.545 10.5H7.455L8.73833 6.62667ZM23.3333 18.6667C23.3333 18.9761 23.2104 19.2728 22.9916 19.4916C22.7728 19.7104 22.4761 19.8333 22.1667 19.8333H5.83333C5.52391 19.8333 5.22717 19.7104 5.00838 19.4916C4.78958 19.2728 4.66667 18.9761 4.66667 18.6667V14C4.66667 13.6906 4.78958 13.3938 5.00838 13.175C5.22717 12.9562 5.52391 12.8333 5.83333 12.8333H22.1667C22.4761 12.8333 22.7728 12.9562 22.9916 13.175C23.2104 13.3938 23.3333 13.6906 23.3333 14V18.6667ZM19.39 15.26C19.2452 15.3124 19.1137 15.396 19.0049 15.5049C18.896 15.6137 18.8124 15.7452 18.76 15.89C18.6751 16.102 18.6544 16.3343 18.7003 16.558C18.7461 16.7817 18.8567 16.987 19.0182 17.1485C19.1796 17.31 19.385 17.4205 19.6087 17.4664C19.8324 17.5123 20.0647 17.4915 20.2767 17.4067C20.4214 17.3543 20.5529 17.2707 20.6618 17.1618C20.7707 17.0529 20.8543 16.9214 20.9067 16.7767C20.972 16.6382 21.0039 16.4864 21 16.3333C20.9957 16.0244 20.8749 15.7286 20.6617 15.505C20.4976 15.3431 20.2893 15.2335 20.063 15.1899C19.8366 15.1462 19.6025 15.1707 19.39 15.26ZM15.1667 15.1667H12.8333C12.5239 15.1667 12.2272 15.2896 12.0084 15.5084C11.7896 15.7272 11.6667 16.0239 11.6667 16.3333C11.6667 16.6428 11.7896 16.9395 12.0084 17.1583C12.2272 17.3771 12.5239 17.5 12.8333 17.5H15.1667C15.4761 17.5 15.7728 17.3771 15.9916 17.1583C16.2104 16.9395 16.3333 16.6428 16.3333 16.3333C16.3333 16.0239 16.2104 15.7272 15.9916 15.5084C15.7728 15.2896 15.4761 15.1667 15.1667 15.1667Z" fill="var(--fill-0, white)"/>
</g>
</svg>
