<svg preserveAspectRatio="none" width="100%" height="100%" overflow="visible" style="display: block;" viewBox="0 0 20 20" fill="none" xmlns="http://www.w3.org/2000/svg">
<g id="uil:corner-down-right-alt">
<path id="Vector" d="M17.4333 10.5167C17.3937 10.4144 17.3342 10.3209 17.2583 10.2417L14.7583 7.74167C14.6014 7.58475 14.3886 7.49659 14.1667 7.49659C13.9447 7.49659 13.7319 7.58475 13.575 7.74167C13.4181 7.89859 13.3299 8.11142 13.3299 8.33333C13.3299 8.55525 13.4181 8.76808 13.575 8.925L14.6583 10H6.66667C6.44565 10 6.23369 9.9122 6.07741 9.75592C5.92113 9.59964 5.83333 9.38768 5.83333 9.16667V5.83333C5.83333 5.61232 5.74554 5.40036 5.58926 5.24408C5.43298 5.0878 5.22101 5 5 5C4.77899 5 4.56702 5.0878 4.41074 5.24408C4.25446 5.40036 4.16667 5.61232 4.16667 5.83333V9.16667C4.16667 9.82971 4.43006 10.4656 4.8989 10.9344C5.36774 11.4033 6.00363 11.6667 6.66667 11.6667H14.6583L13.575 12.7417C13.4969 12.8191 13.4349 12.9113 13.3926 13.0129C13.3503 13.1144 13.3285 13.2233 13.3285 13.3333C13.3285 13.4433 13.3503 13.5523 13.3926 13.6538C13.4349 13.7554 13.4969 13.8475 13.575 13.925C13.6525 14.0031 13.7446 14.0651 13.8462 14.1074C13.9477 14.1497 14.0567 14.1715 14.1667 14.1715C14.2767 14.1715 14.3856 14.1497 14.4871 14.1074C14.5887 14.0651 14.6809 14.0031 14.7583 13.925L17.2583 11.425C17.3342 11.3457 17.3937 11.2523 17.4333 11.15C17.5167 10.9471 17.5167 10.7196 17.4333 10.5167Z" fill="var(--fill-0, white)"/>
</g>
</svg>
