<svg preserveAspectRatio="none" width="100%" height="100%" overflow="visible" style="display: block;" viewBox="0 0 24 24" fill="none" xmlns="http://www.w3.org/2000/svg">
<g id="uil:letter-chinese-a">
<path id="Vector" d="M20 5H13V4C13 3.73478 12.8946 3.48043 12.7071 3.29289C12.5196 3.10536 12.2652 3 12 3C11.7348 3 11.4804 3.10536 11.2929 3.29289C11.1054 3.48043 11 3.73478 11 4V5H4C3.73478 5 3.48043 5.10536 3.29289 5.29289C3.10536 5.48043 3 5.73478 3 6C3 6.26522 3.10536 6.51957 3.29289 6.70711C3.48043 6.89464 3.73478 7 4 7H15.882C15.432 9.9973 14.0541 12.7783 11.942 14.952C10.4774 13.4511 9.35835 11.6484 8.663 9.67C8.57548 9.4195 8.39203 9.21403 8.15302 9.09879C7.914 8.98355 7.639 8.96798 7.3885 9.0555C7.138 9.14302 6.93253 9.32647 6.81729 9.56548C6.70205 9.8045 6.68648 10.0795 6.774 10.33C7.5574 12.5578 8.81268 14.5901 10.454 16.288C8.76198 17.6226 6.79019 18.5576 4.686 19.023C4.44504 19.0756 4.23202 19.2154 4.08786 19.4155C3.9437 19.6156 3.87857 19.8619 3.90499 20.1071C3.93141 20.3523 4.04751 20.5791 4.23099 20.7439C4.41446 20.9087 4.65237 20.9999 4.899 21C4.97129 21.0001 5.04338 20.9924 5.114 20.977C7.62057 20.424 9.96109 19.2868 11.945 17.658C13.9341 19.2851 16.2778 20.422 18.787 20.977C19.045 21.0305 19.3136 20.9801 19.5346 20.8366C19.7556 20.6932 19.9111 20.4683 19.9672 20.2109C20.0233 19.9534 19.9756 19.6843 19.8344 19.4618C19.6931 19.2394 19.4698 19.0817 19.213 19.023C17.1024 18.558 15.1235 17.624 13.423 16.29C15.8682 13.7511 17.4349 10.495 17.893 7H20C20.2652 7 20.5196 6.89464 20.7071 6.70711C20.8946 6.51957 21 6.26522 21 6C21 5.73478 20.8946 5.48043 20.7071 5.29289C20.5196 5.10536 20.2652 5 20 5Z" fill="var(--fill-0, white)"/>
</g>
</svg>
