<svg preserveAspectRatio="none" width="100%" height="100%" overflow="visible" style="display: block;" viewBox="0 0 28 28" fill="none" xmlns="http://www.w3.org/2000/svg">
<g id="uil:document-info">
<path id="Vector" d="M14 16.3333C13.6906 16.3333 13.3938 16.4563 13.175 16.675C12.9562 16.8938 12.8333 17.1906 12.8333 17.5V19.8333C12.8333 20.1428 12.9562 20.4395 13.175 20.6583C13.3938 20.8771 13.6906 21 14 21C14.3094 21 14.6062 20.8771 14.825 20.6583C15.0437 20.4395 15.1667 20.1428 15.1667 19.8333V17.5C15.1667 17.1906 15.0437 16.8938 14.825 16.675C14.6062 16.4563 14.3094 16.3333 14 16.3333ZM14.4433 12.9267C14.2321 12.8287 13.9965 12.7962 13.7667 12.8333L13.5567 12.9033L13.3467 13.0083L13.1717 13.1483C13.0607 13.2601 12.9735 13.3932 12.9154 13.5396C12.8572 13.6859 12.8293 13.8426 12.8333 14C12.8324 14.1535 12.8619 14.3057 12.9199 14.4479C12.978 14.59 13.0635 14.7193 13.1717 14.8283C13.2826 14.9345 13.4135 15.0178 13.5567 15.0733C13.6951 15.1386 13.847 15.1706 14 15.1667C14.1535 15.1676 14.3057 15.1381 14.4479 15.0801C14.59 15.022 14.7193 14.9365 14.8283 14.8283C14.9365 14.7193 15.022 14.59 15.0801 14.4479C15.1381 14.3057 15.1676 14.1535 15.1667 14C15.1676 13.8465 15.1381 13.6943 15.0801 13.5521C15.022 13.41 14.9365 13.2807 14.8283 13.1717C14.7143 13.0695 14.5842 12.9867 14.4433 12.9267ZM23.3333 10.43C23.3213 10.3228 23.2978 10.2172 23.2633 10.115V10.01C23.2085 9.88931 23.1336 9.77884 23.0417 9.68333L16.0417 2.68333C15.9462 2.59142 15.8357 2.51646 15.715 2.46167H15.5983C15.4849 2.401 15.363 2.35774 15.2367 2.33333H8.16667C7.23841 2.33333 6.34817 2.70208 5.69179 3.35846C5.03542 4.01484 4.66667 4.90508 4.66667 5.83333V22.1667C4.66667 23.0949 5.03542 23.9852 5.69179 24.6415C6.34817 25.2979 7.23841 25.6667 8.16667 25.6667H19.8333C20.7616 25.6667 21.6518 25.2979 22.3082 24.6415C22.9646 23.9852 23.3333 23.0949 23.3333 22.1667V10.43ZM16.3333 6.31167L19.355 9.33333H17.5C17.1906 9.33333 16.8938 9.21042 16.675 8.99162C16.4562 8.77283 16.3333 8.47609 16.3333 8.16667V6.31167ZM21 22.1667C21 22.4761 20.8771 22.7728 20.6583 22.9916C20.4395 23.2104 20.1428 23.3333 19.8333 23.3333H8.16667C7.85725 23.3333 7.5605 23.2104 7.34171 22.9916C7.12292 22.7728 7 22.4761 7 22.1667V5.83333C7 5.52391 7.12292 5.22717 7.34171 5.00838C7.5605 4.78958 7.85725 4.66667 8.16667 4.66667H14V8.16667C14 9.09492 14.3687 9.98516 15.0251 10.6415C15.6815 11.2979 16.5717 11.6667 17.5 11.6667H21V22.1667Z" fill="var(--fill-0, white)"/>
</g>
</svg>
