<svg preserveAspectRatio="none" width="100%" height="100%" overflow="visible" style="display: block;" viewBox="0 0 16 16" fill="none" xmlns="http://www.w3.org/2000/svg">
<g id="uil:phone-alt">
<path id="Vector" d="M12.96 8.66667C12.8133 8.66667 12.66 8.62 12.5133 8.58667C12.2163 8.52131 11.9244 8.43441 11.64 8.32667C11.3307 8.21415 10.9908 8.22 10.6855 8.34307C10.3803 8.46615 10.1314 8.69776 9.98667 8.99333L9.84 9.29333C9.19076 8.93198 8.5941 8.48336 8.06667 7.96C7.54331 7.43257 7.09469 6.83591 6.73333 6.18667L7.01333 6C7.30891 5.85528 7.54052 5.60635 7.6636 5.30113C7.78667 4.9959 7.79251 4.65594 7.68 4.34667C7.57352 4.06183 7.48665 3.77003 7.42 3.47333C7.38667 3.32667 7.36 3.17333 7.34 3.02C7.25904 2.55041 7.01308 2.12516 6.64641 1.82083C6.27975 1.51649 5.81646 1.35307 5.34 1.36H3.34C3.05269 1.3573 2.76817 1.41654 2.50581 1.53369C2.24345 1.65083 2.00941 1.82313 1.81962 2.03885C1.62983 2.25458 1.48876 2.50866 1.40599 2.78381C1.32323 3.05896 1.30072 3.34871 1.34 3.63333C1.69516 6.42625 2.97069 9.02125 4.9651 11.0084C6.95952 12.9956 9.55914 14.2617 12.3533 14.6067H12.6067C13.0983 14.6074 13.5729 14.427 13.94 14.1C14.1509 13.9114 14.3194 13.6801 14.4343 13.4215C14.5492 13.163 14.608 12.883 14.6067 12.6V10.6C14.5985 10.1369 14.4299 9.69104 14.1296 9.33844C13.8292 8.98585 13.4159 8.74842 12.96 8.66667ZM13.2933 12.6667C13.2932 12.7613 13.2729 12.8549 13.2339 12.9411C13.1948 13.0273 13.1378 13.1042 13.0667 13.1667C12.9922 13.231 12.9051 13.279 12.8109 13.3077C12.7168 13.3364 12.6177 13.3452 12.52 13.3333C10.0233 13.0132 7.70416 11.871 5.92848 10.0869C4.1528 8.30273 3.02161 5.97822 2.71333 3.48C2.70311 3.38236 2.71259 3.28367 2.74122 3.18976C2.76985 3.09586 2.81704 3.00866 2.88 2.93333C2.94247 2.86222 3.01937 2.80523 3.10559 2.76614C3.1918 2.72706 3.28534 2.70679 3.38 2.70667H5.38C5.53503 2.70322 5.68642 2.75392 5.8081 2.85005C5.92978 2.94617 6.01414 3.08171 6.04667 3.23333C6.07333 3.41556 6.10667 3.59556 6.14667 3.77333C6.2234 4.12483 6.3259 4.47021 6.45333 4.80667L5.52 5.24C5.4402 5.27661 5.36841 5.32863 5.30877 5.39306C5.24913 5.4575 5.2028 5.53308 5.17245 5.61546C5.14209 5.69785 5.12831 5.78542 5.1319 5.87315C5.13548 5.96088 5.15636 6.04703 5.19333 6.12667C6.15327 8.18151 7.80516 9.83339 9.86 10.7933C10.0223 10.86 10.2044 10.86 10.3667 10.7933C10.4498 10.7636 10.5262 10.7176 10.5914 10.6581C10.6567 10.5986 10.7094 10.5267 10.7467 10.4467L11.16 9.51333C11.5048 9.63612 11.8565 9.73852 12.2133 9.82C12.3911 9.86 12.5711 9.89333 12.7533 9.92C12.905 9.95253 13.0405 10.0369 13.1366 10.1586C13.2327 10.2803 13.2834 10.4316 13.28 10.5867L13.2933 12.6667Z" fill="var(--fill-0, black)"/>
</g>
</svg>
