<svg preserveAspectRatio="none" width="100%" height="100%" overflow="visible" style="display: block;" viewBox="0 0 56 56" fill="none" xmlns="http://www.w3.org/2000/svg">
<g id="uil:plus-circle">
<path id="Vector" d="M28 4.66667C23.3851 4.66667 18.8738 6.03514 15.0367 8.59904C11.1995 11.1629 8.20886 14.8071 6.44281 19.0707C4.67677 23.3343 4.21469 28.0259 5.11501 32.5521C6.01533 37.0783 8.23762 41.2359 11.5008 44.4992C14.7641 47.7624 18.9217 49.9847 23.4479 50.885C27.9741 51.7853 32.6657 51.3232 36.9293 49.5572C41.1929 47.7912 44.837 44.8005 47.4009 40.9633C49.9648 37.1262 51.3333 32.6149 51.3333 28C51.3333 24.9358 50.7298 21.9017 49.5572 19.0707C48.3846 16.2398 46.6659 13.6675 44.4992 11.5008C42.3325 9.33414 39.7602 7.61542 36.9293 6.44281C34.0983 5.2702 31.0642 4.66667 28 4.66667ZM28 46.6667C24.3081 46.6667 20.6991 45.5719 17.6294 43.5208C14.5596 41.4697 12.1671 38.5543 10.7542 35.1434C9.34141 31.7325 8.97175 27.9793 9.69201 24.3583C10.4123 20.7373 12.1901 17.4113 14.8007 14.8007C17.4113 12.1901 20.7373 10.4123 24.3583 9.69201C27.9793 8.97175 31.7325 9.34141 35.1434 10.7543C38.5543 12.1671 41.4696 14.5596 43.5208 17.6294C45.5719 20.6991 46.6667 24.3081 46.6667 28C46.6667 32.9507 44.7 37.6987 41.1993 41.1993C37.6986 44.7 32.9507 46.6667 28 46.6667ZM37.3333 25.6667H30.3333V18.6667C30.3333 18.0478 30.0875 17.4543 29.6499 17.0168C29.2123 16.5792 28.6188 16.3333 28 16.3333C27.3812 16.3333 26.7877 16.5792 26.3501 17.0168C25.9125 17.4543 25.6667 18.0478 25.6667 18.6667V25.6667H18.6667C18.0478 25.6667 17.4543 25.9125 17.0167 26.3501C16.5792 26.7877 16.3333 27.3812 16.3333 28C16.3333 28.6188 16.5792 29.2123 17.0167 29.6499C17.4543 30.0875 18.0478 30.3333 18.6667 30.3333H25.6667V37.3333C25.6667 37.9522 25.9125 38.5457 26.3501 38.9833C26.7877 39.4208 27.3812 39.6667 28 39.6667C28.6188 39.6667 29.2123 39.4208 29.6499 38.9833C30.0875 38.5457 30.3333 37.9522 30.3333 37.3333V30.3333H37.3333C37.9522 30.3333 38.5457 30.0875 38.9832 29.6499C39.4208 29.2123 39.6667 28.6188 39.6667 28C39.6667 27.3812 39.4208 26.7877 38.9832 26.3501C38.5457 25.9125 37.9522 25.6667 37.3333 25.6667Z" fill="var(--fill-0, black)"/>
</g>
</svg>
