<svg preserveAspectRatio="none" width="100%" height="100%" overflow="visible" style="display: block;" viewBox="0 0 18 18" fill="none" xmlns="http://www.w3.org/2000/svg">
<g id="uil:angle-down">
<path id="Vector" d="M12.75 6.8775C12.6095 6.73781 12.4194 6.6594 12.2212 6.6594C12.0231 6.6594 11.833 6.73781 11.6925 6.8775L9 9.5325L6.345 6.8775C6.20448 6.73781 6.01439 6.6594 5.81625 6.6594C5.61811 6.6594 5.42802 6.73781 5.2875 6.8775C5.2172 6.94722 5.16141 7.03017 5.12333 7.12157C5.08525 7.21296 5.06565 7.31099 5.06565 7.41C5.06565 7.50901 5.08525 7.60704 5.12333 7.69843C5.16141 7.78983 5.2172 7.87278 5.2875 7.9425L8.4675 11.1225C8.53722 11.1928 8.62017 11.2486 8.71157 11.2867C8.80296 11.3247 8.90099 11.3443 9 11.3443C9.09901 11.3443 9.19704 11.3247 9.28843 11.2867C9.37983 11.2486 9.46278 11.1928 9.5325 11.1225L12.75 7.9425C12.8203 7.87278 12.8761 7.78983 12.9142 7.69843C12.9522 7.60704 12.9718 7.50901 12.9718 7.41C12.9718 7.31099 12.9522 7.21296 12.9142 7.12157C12.8761 7.03017 12.8203 6.94722 12.75 6.8775Z" fill="var(--fill-0, black)"/>
</g>
</svg>
