<svg preserveAspectRatio="none" width="100%" height="100%" overflow="visible" style="display: block;" viewBox="0 0 18 18" fill="none" xmlns="http://www.w3.org/2000/svg">
<g id="uil:exchange-alt">
<path id="Vector" d="M16.2825 6.96746L13.2825 3.96746C13.2126 3.89753 13.1295 3.84206 13.0382 3.80421C12.9468 3.76637 12.8489 3.74689 12.75 3.74689C12.5503 3.74689 12.3587 3.82623 12.2175 3.96746C12.0763 4.10868 11.9969 4.30023 11.9969 4.49996C11.9969 4.69968 12.0763 4.89123 12.2175 5.03246L13.9425 6.74996H5.24999C5.05108 6.74996 4.86031 6.82897 4.71966 6.96963C4.57901 7.11028 4.49999 7.30104 4.49999 7.49996C4.49999 7.69887 4.57901 7.88963 4.71966 8.03029C4.86031 8.17094 5.05108 8.24996 5.24999 8.24996H15.75C15.8981 8.24922 16.0426 8.20467 16.1654 8.12192C16.2882 8.03917 16.3837 7.92192 16.44 7.78496C16.4974 7.64837 16.5131 7.49784 16.4851 7.35235C16.4571 7.20685 16.3866 7.07292 16.2825 6.96746ZM12.75 9.74996H2.24999C2.10192 9.7507 1.95738 9.79525 1.83459 9.878C1.7118 9.96075 1.61626 10.078 1.55999 10.215C1.50256 10.3515 1.48686 10.5021 1.51489 10.6476C1.54292 10.7931 1.61342 10.927 1.71749 11.0325L4.71749 14.0325C4.78721 14.1028 4.87016 14.1585 4.96156 14.1966C5.05295 14.2347 5.15098 14.2543 5.24999 14.2543C5.349 14.2543 5.44703 14.2347 5.53842 14.1966C5.62982 14.1585 5.71277 14.1028 5.78249 14.0325C5.85279 13.9627 5.90858 13.8798 5.94666 13.7884C5.98474 13.697 6.00434 13.599 6.00434 13.5C6.00434 13.4009 5.98474 13.3029 5.94666 13.2115C5.90858 13.1201 5.85279 13.0372 5.78249 12.9675L4.05749 11.25H12.75C12.9489 11.25 13.1397 11.1709 13.2803 11.0303C13.421 10.8896 13.5 10.6989 13.5 10.5C13.5 10.301 13.421 10.1103 13.2803 9.96963C13.1397 9.82897 12.9489 9.74996 12.75 9.74996Z" fill="var(--fill-0, black)"/>
</g>
</svg>
