<svg preserveAspectRatio="none" width="100%" height="100%" overflow="visible" style="display: block;" viewBox="0 0 32 32" fill="none" xmlns="http://www.w3.org/2000/svg">
<g id="uil:setting">
<path id="Vector" d="M26.5333 16.88C26.3196 16.6367 26.2017 16.3239 26.2017 16C26.2017 15.6761 26.3196 15.3633 26.5333 15.12L28.24 13.2C28.4281 12.9902 28.5448 12.7263 28.5736 12.446C28.6023 12.1657 28.5416 11.8836 28.4 11.64L25.7333 7.02667C25.5932 6.78336 25.3798 6.5905 25.1237 6.47558C24.8675 6.36066 24.5816 6.32954 24.3067 6.38667L21.8 6.89333C21.481 6.95924 21.149 6.90612 20.8665 6.744C20.584 6.58188 20.3707 6.32198 20.2667 6.01333L19.4533 3.57333C19.3639 3.30851 19.1935 3.07849 18.9662 2.91579C18.7389 2.75309 18.4662 2.66595 18.1867 2.66667H12.8533C12.5626 2.65149 12.2748 2.7319 12.0341 2.89562C11.7933 3.05934 11.6128 3.29736 11.52 3.57333L10.7733 6.01333C10.6693 6.32198 10.456 6.58188 10.1735 6.744C9.891 6.90612 9.55896 6.95924 9.24 6.89333L6.66667 6.38667C6.40607 6.34984 6.1404 6.39096 5.90313 6.50485C5.66586 6.61874 5.4676 6.8003 5.33333 7.02667L2.66667 11.64C2.52155 11.8809 2.4563 12.1614 2.48024 12.4416C2.50419 12.7218 2.61611 12.9873 2.8 13.2L4.49333 15.12C4.70709 15.3633 4.82498 15.6761 4.82498 16C4.82498 16.3239 4.70709 16.6367 4.49333 16.88L2.8 18.8C2.61611 19.0127 2.50419 19.2782 2.48024 19.5584C2.4563 19.8386 2.52155 20.1191 2.66667 20.36L5.33333 24.9733C5.47346 25.2166 5.68682 25.4095 5.943 25.5244C6.19918 25.6393 6.4851 25.6705 6.76 25.6133L9.26667 25.1067C9.58562 25.0408 9.91767 25.0939 10.2002 25.256C10.4826 25.4181 10.696 25.678 10.8 25.9867L11.6133 28.4267C11.7061 28.7026 11.8867 28.9407 12.1274 29.1044C12.3682 29.2681 12.6559 29.3485 12.9467 29.3333H18.28C18.5595 29.3341 18.8322 29.2469 19.0595 29.0842C19.2868 28.9215 19.4572 28.6915 19.5467 28.4267L20.36 25.9867C20.464 25.678 20.6774 25.4181 20.9598 25.256C21.2423 25.0939 21.5744 25.0408 21.8933 25.1067L24.4 25.6133C24.6749 25.6705 24.9608 25.6393 25.217 25.5244C25.4732 25.4095 25.6865 25.2166 25.8267 24.9733L28.4933 20.36C28.6349 20.1164 28.6957 19.8343 28.6669 19.554C28.6382 19.2737 28.5214 19.0098 28.3333 18.8L26.5333 16.88ZM24.5467 18.6667L25.6133 19.8667L23.9067 22.8267L22.3333 22.5067C21.373 22.3104 20.3741 22.4735 19.5261 22.9651C18.6782 23.4566 18.0402 24.2425 17.7333 25.1733L17.2267 26.6667H13.8133L13.3333 25.1467C13.0265 24.2158 12.3885 23.43 11.5405 22.9384C10.6926 22.4468 9.69363 22.2837 8.73333 22.48L7.16 22.8L5.42667 19.8533L6.49333 18.6533C7.14927 17.92 7.51191 16.9706 7.51191 15.9867C7.51191 15.0028 7.14927 14.0534 6.49333 13.32L5.42667 12.12L7.13333 9.18667L8.70667 9.50667C9.66696 9.70296 10.6659 9.53984 11.5139 9.04826C12.3618 8.55669 12.9998 7.77088 13.3067 6.84L13.8133 5.33333H17.2267L17.7333 6.85333C18.0402 7.78421 18.6782 8.57002 19.5261 9.0616C20.3741 9.55317 21.373 9.7163 22.3333 9.52L23.9067 9.2L25.6133 12.16L24.5467 13.36C23.8981 14.0917 23.54 15.0356 23.54 16.0133C23.54 16.9911 23.8981 17.935 24.5467 18.6667ZM15.52 10.6667C14.4652 10.6667 13.434 10.9795 12.557 11.5655C11.6799 12.1515 10.9963 12.9845 10.5926 13.959C10.189 14.9336 10.0834 16.0059 10.2891 17.0405C10.4949 18.075 11.0029 19.0254 11.7488 19.7712C12.4946 20.5171 13.445 21.0251 14.4795 21.2309C15.5141 21.4366 16.5864 21.331 17.561 20.9274C18.5355 20.5237 19.3685 19.8401 19.9545 18.963C20.5405 18.086 20.8533 17.0548 20.8533 16C20.8533 14.5855 20.2914 13.229 19.2912 12.2288C18.291 11.2286 16.9345 10.6667 15.52 10.6667ZM15.52 18.6667C14.9926 18.6667 14.477 18.5103 14.0385 18.2173C13.5999 17.9242 13.2582 17.5078 13.0563 17.0205C12.8545 16.5332 12.8017 15.997 12.9046 15.4798C13.0075 14.9625 13.2614 14.4873 13.6344 14.1144C14.0073 13.7414 14.4825 13.4875 14.9998 13.3846C15.517 13.2817 16.0532 13.3345 16.5405 13.5363C17.0278 13.7382 17.4442 14.0799 17.7373 14.5185C18.0303 14.957 18.1867 15.4726 18.1867 16C18.1867 16.7072 17.9057 17.3855 17.4056 17.8856C16.9055 18.3857 16.2272 18.6667 15.52 18.6667Z" fill="var(--fill-0, black)"/>
</g>
</svg>
