<svg preserveAspectRatio="none" width="100%" height="100%" overflow="visible" style="display: block;" viewBox="0 0 32 32" fill="none" xmlns="http://www.w3.org/2000/svg">
<g id="uil:compass">
<path id="Vector" d="M16 2.66667C13.3629 2.66667 10.7851 3.44865 8.5924 4.91374C6.39974 6.37882 4.69077 8.46121 3.68161 10.8976C2.67244 13.3339 2.40839 16.0148 2.92286 18.6012C3.43733 21.1876 4.70721 23.5634 6.57191 25.4281C8.43661 27.2928 10.8124 28.5627 13.3988 29.0771C15.9852 29.5916 18.6661 29.3276 21.1024 28.3184C23.5388 27.3092 25.6212 25.6003 27.0863 23.4076C28.5513 21.2149 29.3333 18.6371 29.3333 16C29.3333 14.249 28.9885 12.5152 28.3184 10.8976C27.6483 9.27988 26.6662 7.81002 25.4281 6.57191C24.19 5.3338 22.7201 4.35167 21.1024 3.68161C19.4848 3.01154 17.751 2.66667 16 2.66667ZM17.3333 26.5733V25.3333C17.3333 24.9797 17.1929 24.6406 16.9428 24.3905C16.6928 24.1405 16.3536 24 16 24C15.6464 24 15.3072 24.1405 15.0572 24.3905C14.8071 24.6406 14.6667 24.9797 14.6667 25.3333V26.5733C12.32 26.2757 10.1388 25.2065 8.46611 23.5339C6.79346 21.8612 5.72426 19.68 5.42667 17.3333H6.66667C7.02029 17.3333 7.35943 17.1929 7.60948 16.9428C7.85952 16.6928 8 16.3536 8 16C8 15.6464 7.85952 15.3072 7.60948 15.0572C7.35943 14.8071 7.02029 14.6667 6.66667 14.6667H5.42667C5.72426 12.32 6.79346 10.1388 8.46611 8.46611C10.1388 6.79346 12.32 5.72426 14.6667 5.42667V6.66667C14.6667 7.02029 14.8071 7.35943 15.0572 7.60948C15.3072 7.85952 15.6464 8 16 8C16.3536 8 16.6928 7.85952 16.9428 7.60948C17.1929 7.35943 17.3333 7.02029 17.3333 6.66667V5.42667C19.68 5.72426 21.8612 6.79346 23.5339 8.46611C25.2065 10.1388 26.2757 12.32 26.5733 14.6667H25.3333C24.9797 14.6667 24.6406 14.8071 24.3905 15.0572C24.1405 15.3072 24 15.6464 24 16C24 16.3536 24.1405 16.6928 24.3905 16.9428C24.6406 17.1929 24.9797 17.3333 25.3333 17.3333H26.5733C26.2757 19.68 25.2065 21.8612 23.5339 23.5339C21.8612 25.2065 19.68 26.2757 17.3333 26.5733ZM20.1867 10.0667L13.52 12.8933C13.2092 13.028 12.9613 13.2759 12.8267 13.5867L10 20.2533C9.89499 20.4978 9.86554 20.7682 9.91544 21.0295C9.96534 21.2909 10.0923 21.5314 10.28 21.72C10.5262 21.9712 10.8616 22.115 11.2133 22.12C11.398 22.1216 11.5805 22.0805 11.7467 22L18.4133 19.1733C18.7241 19.0387 18.972 18.7908 19.1067 18.48L21.9333 11.8133C22.0364 11.569 22.0642 11.2995 22.0133 11.0393C21.9624 10.779 21.8351 10.5399 21.6476 10.3524C21.4601 10.1649 21.221 10.0376 20.9607 9.98668C20.7005 9.93578 20.431 9.96363 20.1867 10.0667ZM16.8667 16.8667L13.8267 18.2L15.16 15.16L18.2 13.8267L16.8667 16.8667Z" fill="var(--fill-0, black)"/>
</g>
</svg>
